<?xml version="1.0" standalone="no"?>
<!DOCTYPE svg PUBLIC "-//W3C//DTD SVG 20010904//EN"
 "http://www.w3.org/TR/2001/REC-SVG-20010904/DTD/svg10.dtd">
<svg version="1.0" xmlns="http://www.w3.org/2000/svg"
 width="300.000000pt" height="300.000000pt" viewBox="0 0 300.000000 300.000000"
 preserveAspectRatio="xMidYMid meet">
<metadata>
Created by potrace 1.10, written by Peter Selinger 2001-2011
</metadata>
<g transform="translate(0.000000,300.000000) scale(0.100000,-0.100000)"
fill="#000000" stroke="none">
<path d="M1923 2900 c-107 -22 -196 -82 -253 -171 l-37 -57 -46 46 c-40 40
-52 47 -87 47 -39 0 -47 -6 -153 -115 -62 -63 -170 -175 -240 -249 l-127 -134
-35 41 c-43 50 -93 69 -135 52 -39 -16 -798 -813 -806 -846 -10 -38 7 -84 39
-108 26 -19 44 -21 197 -24 l169 -4 3 -606 c3 -567 4 -609 21 -634 10 -14 32
-31 49 -37 43 -15 1993 -15 2036 0 64 22 67 36 70 322 l3 257 175 0 c172 0
175 0 199 24 28 29 40 66 31 102 -6 23 -423 473 -480 518 -19 15 -28 16 -45 7
-48 -26 -31 -51 209 -303 127 -132 229 -246 227 -252 -2 -7 -71 -13 -203 -17
-109 -3 -200 -6 -201 -7 -2 -1 -4 -129 -5 -284 l-3 -283 -282 -3 -283 -2 0
579 0 580 115 118 114 118 88 -92 c49 -51 96 -93 105 -93 21 0 48 27 48 47 0
9 -44 60 -97 114 -102 104 -137 123 -184 99 -13 -6 -61 -50 -106 -98 l-82 -87
-1 158 0 157 155 0 c168 0 209 9 239 51 9 13 16 40 16 61 0 33 -11 48 -100
144 -55 59 -100 110 -100 114 0 3 16 14 36 23 61 29 139 112 170 180 36 78 44
196 20 280 -19 66 -88 162 -143 200 -84 58 -209 86 -300 67z m193 -109 c154
-68 222 -251 150 -403 -68 -143 -235 -205 -392 -147 -56 21 -56 21 -76 1 -13
-13 -18 -27 -14 -40 10 -29 99 -64 178 -70 l68 -5 110 -113 c60 -63 110 -121
110 -129 0 -13 -28 -15 -194 -15 -150 0 -196 -3 -205 -13 -8 -10 -12 -251 -13
-843 l-3 -829 -335 0 -335 0 -5 409 c-5 398 -6 409 -25 422 -18 12 -24 11 -43
-2 l-22 -15 0 -410 0 -409 -282 2 -283 3 -3 629 c-1 438 -5 633 -13 642 -8 10
-59 14 -202 16 -120 2 -192 7 -194 13 -3 9 728 786 746 793 4 1 23 -15 44 -36
l37 -38 -130 -137 c-119 -126 -130 -141 -130 -175 0 -21 7 -48 16 -61 30 -42
71 -51 239 -51 l155 0 0 -308 c0 -226 3 -311 12 -320 15 -15 51 -15 66 0 17
17 17 689 0 706 -9 9 -68 12 -205 12 -162 0 -193 2 -193 14 0 12 479 523 712
761 l39 40 53 -56 c54 -55 54 -56 55 -121 1 -107 42 -202 84 -196 37 6 43 32
22 90 -64 173 33 363 210 409 48 13 138 3 191 -20z"/>
<path d="M1860 2645 c-16 -19 -9 -45 16 -62 19 -12 24 -11 45 6 21 16 22 22
11 45 -13 29 -52 36 -72 11z"/>
<path d="M1961 2544 c-50 -58 -91 -111 -91 -119 0 -17 27 -45 45 -45 20 0 57
38 194 203 21 25 0 67 -33 67 -19 0 -46 -25 -115 -106z"/>
<path d="M2066 2444 c-21 -21 -20 -37 3 -58 25 -23 59 -13 67 20 12 46 -37 72
-70 38z"/>
<path d="M676 637 c-22 -16 -18 -55 7 -71 39 -24 79 44 41 71 -10 7 -21 13
-24 13 -3 0 -14 -6 -24 -13z"/>
<path d="M1376 637 c-22 -16 -18 -55 7 -71 39 -24 79 44 41 71 -10 7 -21 13
-24 13 -3 0 -14 -6 -24 -13z"/>
<path d="M771 534 c-90 -104 -103 -128 -79 -152 29 -29 54 -12 141 90 85 100
100 131 75 156 -25 25 -49 9 -137 -94z"/>
<path d="M1470 535 c-75 -86 -91 -110 -88 -132 3 -24 8 -28 35 -28 28 0 42 12
117 100 84 97 99 128 74 153 -25 25 -49 9 -138 -93z"/>
<path d="M867 433 c-11 -11 -8 -48 5 -61 34 -34 90 6 68 48 -10 20 -58 28 -73
13z"/>
<path d="M1567 434 c-12 -12 -8 -51 7 -64 8 -6 25 -10 38 -8 19 2 23 9 23 38
0 32 -3 35 -30 38 -17 2 -34 0 -38 -4z"/>
<path d="M2066 628 c-13 -19 -14 -25 -2 -43 7 -11 21 -21 30 -23 42 -9 64 58
27 78 -28 15 -38 13 -55 -12z"/>
<path d="M2229 603 c-110 -118 -150 -173 -147 -200 3 -24 8 -28 34 -28 26 0
42 14 117 100 85 97 100 128 75 153 -21 21 -43 13 -79 -25z"/>
<path d="M2267 434 c-12 -13 -8 -51 8 -64 9 -7 25 -10 40 -6 22 6 26 11 23 39
-3 28 -7 32 -33 35 -17 2 -34 0 -38 -4z"/>
</g>
</svg>
