<?xml version="1.0" standalone="no"?>
<!DOCTYPE svg PUBLIC "-//W3C//DTD SVG 20010904//EN"
 "http://www.w3.org/TR/2001/REC-SVG-20010904/DTD/svg10.dtd">
<svg version="1.0" xmlns="http://www.w3.org/2000/svg"
 width="300.000000pt" height="300.000000pt" viewBox="0 0 300.000000 300.000000"
 preserveAspectRatio="xMidYMid meet">
<metadata>
Created by potrace 1.10, written by Peter Selinger 2001-2011
</metadata>
<g transform="translate(0.000000,300.000000) scale(0.100000,-0.100000)"
fill="#000000" stroke="none">
<path d="M203 2990 c-29 -4 -68 -18 -88 -30 -66 -41 -115 -130 -103 -187 3
-12 10 -1 21 32 28 80 82 131 165 155 23 8 47 19 53 27 6 7 10 12 8 12 -2 -1
-27 -5 -56 -9z"/>
<path d="M2110 2989 c0 -4 26 -17 58 -29 76 -29 115 -60 141 -113 21 -43 21
-52 21 -765 l0 -722 -27 -1 c-259 -7 -482 -146 -588 -364 -47 -98 -65 -174
-65 -282 0 -189 72 -350 216 -482 117 -107 257 -161 416 -161 118 0 176 14
285 66 147 72 250 186 322 356 24 59 26 73 26 218 0 136 -3 162 -22 214 -49
130 -149 256 -259 327 -59 38 -82 69 -51 69 23 0 114 -59 170 -110 113 -103
176 -227 219 -425 l13 -60 3 59 c9 170 -128 401 -307 521 -75 49 -112 56 -134
24 -23 -32 -9 -56 52 -90 31 -17 88 -64 126 -103 330 -335 168 -899 -293
-1017 -318 -81 -654 120 -737 440 -21 81 -21 226 0 306 67 257 298 447 557
456 35 1 73 8 86 16 l22 13 0 728 c0 710 -1 728 -21 772 -24 53 -50 83 -98
113 -35 21 -131 40 -131 26z"/>
<path d="M165 2905 c-22 -13 -51 -41 -65 -61 l-25 -38 -3 -1291 c-2 -1151 -1
-1296 13 -1329 18 -43 66 -93 102 -107 14 -5 320 -9 743 -9 395 0 725 -3 734
-6 14 -5 14 -9 0 -36 -15 -29 -15 -30 8 -23 37 12 49 43 28 75 -8 13 -107 16
-757 20 l-748 5 -31 22 c-68 49 -64 -46 -64 1373 0 1419 -4 1324 64 1373 l31
22 975 3 c1089 2 1018 7 1067 -67 l23 -34 0 -688 0 -689 -37 0 c-108 -1 -283
-72 -389 -159 -112 -91 -205 -241 -239 -383 -8 -35 -15 -110 -15 -168 0 -127
22 -218 83 -335 51 -97 170 -222 267 -278 89 -52 206 -87 283 -86 74 0 61 8
-68 38 -140 32 -243 88 -340 185 -66 65 -91 98 -123 166 -57 116 -72 183 -72
315 0 177 41 294 151 430 27 33 55 65 63 72 45 38 157 106 205 124 59 22 171
49 207 49 11 0 28 8 38 19 15 17 16 74 14 708 l-3 689 -28 42 c-15 23 -45 51
-67 62 -39 20 -56 20 -1012 20 l-973 0 -40 -25z"/>
<path d="M390 2702 c-19 -11 -45 -34 -57 -52 -22 -32 -23 -41 -23 -254 0 -247
4 -265 72 -306 32 -19 52 -20 765 -20 l732 0 15 21 c16 23 12 47 -12 67 -12 9
-174 12 -732 12 -544 0 -719 3 -728 12 -9 9 -12 70 -12 215 0 190 1 203 19
213 13 7 269 10 760 10 l740 0 15 -22 c13 -18 16 -52 16 -165 0 -141 0 -144
24 -154 30 -14 63 2 72 36 3 13 4 87 2 164 -3 152 -9 168 -72 215 -27 21 -37
21 -794 24 -732 2 -769 1 -802 -16z m1577 -35 c18 -9 37 -26 43 -38 7 -12 12
-84 13 -170 2 -136 0 -149 -15 -149 -16 0 -18 13 -18 125 0 135 -12 185 -48
204 -14 8 -251 11 -765 11 l-744 0 -27 -26 -26 -27 0 -203 c0 -200 0 -203 24
-231 l24 -28 294 -2 c161 -1 485 -2 721 -3 373 0 427 -2 427 -15 0 -13 -87
-15 -720 -15 -620 0 -725 2 -750 15 -58 30 -60 39 -60 281 0 220 0 221 24 247
13 14 35 28 48 31 12 3 32 7 43 10 11 2 349 3 750 2 676 -1 732 -2 762 -19z"/>
<path d="M1665 2520 c-22 -24 -13 -70 15 -77 18 -5 20 -14 20 -83 0 -83 12
-110 50 -110 41 0 50 25 50 144 0 97 -3 115 -18 129 -26 24 -94 22 -117 -3z
m103 -127 c-2 -88 -6 -108 -18 -108 -12 0 -16 16 -18 76 -2 66 -6 79 -27 99
-35 33 -31 40 20 40 l46 0 -3 -107z"/>
<path d="M161 1894 c0 -11 3 -14 6 -6 3 7 2 16 -1 19 -3 4 -6 -2 -5 -13z"/>
<path d="M369 1873 c-50 -31 -59 -60 -59 -190 0 -100 3 -123 19 -147 33 -50
53 -55 219 -56 142 0 156 2 184 21 45 32 58 74 58 184 0 113 -15 156 -62 185
-29 18 -50 20 -183 20 -121 0 -155 -4 -176 -17z m330 -24 c17 -6 36 -19 41
-29 6 -10 10 -73 10 -140 0 -118 -1 -122 -26 -145 -26 -24 -32 -25 -171 -25
-149 0 -193 10 -207 45 -3 9 -6 69 -6 134 0 109 2 119 23 138 12 11 29 23 37
26 28 10 267 7 299 -4z"/>
<path d="M430 1823 c-44 -16 -50 -33 -50 -133 0 -83 3 -101 21 -124 20 -26 22
-26 145 -26 164 0 164 0 164 144 0 101 -1 105 -26 125 -23 18 -40 21 -133 20
-58 0 -113 -3 -121 -6z m258 -133 c2 -80 0 -97 -15 -107 -18 -13 -216 -19
-247 -7 -13 5 -16 24 -16 103 0 54 3 101 7 105 4 3 66 5 137 4 l131 -3 3 -95z"/>
<path d="M979 1851 l-39 -39 0 -127 0 -127 39 -39 39 -39 133 -1 c174 -2 179
-1 209 20 45 32 60 76 60 184 0 115 -14 158 -62 187 -29 18 -50 20 -187 20
l-153 0 -39 -39z m360 -6 c16 -8 31 -22 35 -30 3 -9 6 -70 6 -136 0 -114 -1
-121 -25 -144 -23 -24 -28 -25 -174 -25 -146 0 -150 1 -180 26 l-31 26 0 122
c0 114 2 124 23 143 33 30 40 31 185 32 98 1 140 -3 161 -14z"/>
<path d="M1060 1823 c-44 -17 -50 -33 -50 -133 0 -83 3 -101 21 -124 20 -26
23 -26 143 -26 167 0 166 -1 166 139 0 144 -2 145 -154 148 -61 1 -118 0 -126
-4z m258 -133 c2 -80 0 -97 -15 -107 -23 -17 -234 -18 -251 -1 -13 13 -17 189
-5 202 4 3 66 5 137 4 l131 -3 3 -95z"/>
<path d="M1638 1874 c-47 -25 -58 -60 -58 -189 0 -192 17 -207 237 -206 158 2
186 9 219 58 27 41 33 207 9 269 -29 75 -53 84 -230 84 -113 -1 -157 -4 -177
-16z m356 -44 c28 -28 29 -35 27 -178 l-1 -102 -32 -20 c-29 -17 -51 -20 -171
-20 -150 0 -189 10 -203 52 -4 13 -6 72 -5 133 3 161 10 166 218 162 138 -2
143 -3 167 -27z"/>
<path d="M1700 1823 c-44 -17 -50 -33 -50 -138 0 -93 2 -103 23 -123 21 -20
34 -22 145 -22 160 0 162 2 162 145 0 137 -3 139 -154 142 -61 1 -118 0 -126
-4z m254 -49 c3 -9 6 -51 6 -94 0 -108 -2 -110 -145 -110 -143 0 -145 2 -145
110 0 43 3 85 6 94 5 14 27 16 139 16 112 0 134 -2 139 -16z"/>
<path d="M369 1273 c-50 -31 -59 -60 -59 -190 0 -100 3 -123 19 -147 33 -50
53 -55 219 -56 142 0 156 2 184 21 45 32 58 74 58 185 0 111 -16 155 -64 185
-27 16 -52 19 -181 19 -121 0 -155 -4 -176 -17z m355 -39 c25 -26 26 -30 26
-151 0 -118 -1 -125 -25 -148 -26 -27 -35 -28 -229 -25 -92 1 -138 15 -150 45
-3 9 -6 69 -6 134 0 109 2 119 23 138 33 30 40 31 193 32 140 1 142 1 168 -25z"/>
<path d="M430 1223 c-44 -17 -50 -33 -50 -133 0 -83 3 -101 21 -124 20 -26 22
-26 145 -26 164 0 164 0 164 144 0 99 -1 106 -25 124 -21 17 -41 20 -132 20
-60 1 -115 -2 -123 -5z m258 -133 c2 -80 0 -97 -15 -107 -18 -13 -216 -19
-247 -7 -13 5 -16 24 -16 103 0 54 3 101 7 105 4 3 66 5 137 4 l131 -3 3 -95z"/>
<path d="M979 1251 l-39 -39 0 -127 0 -127 39 -39 39 -39 133 -1 c174 -2 179
-1 209 20 49 35 61 75 58 198 -3 95 -6 116 -24 140 -36 48 -57 53 -223 53
l-153 0 -39 -39z m360 -6 c16 -8 31 -22 35 -30 3 -9 6 -70 6 -136 0 -114 -1
-121 -25 -144 -25 -26 -31 -27 -185 -27 -130 0 -138 2 -169 28 l-31 26 0 122
c0 114 2 124 23 143 33 30 40 31 185 32 98 1 140 -3 161 -14z"/>
<path d="M1060 1223 c-44 -16 -50 -33 -50 -133 0 -83 3 -101 21 -124 20 -26
23 -26 143 -26 167 0 166 -1 166 140 0 105 -1 109 -26 129 -23 18 -40 21 -133
20 -58 0 -113 -3 -121 -6z m258 -133 c2 -80 0 -97 -15 -107 -23 -17 -234 -18
-251 -1 -13 13 -17 189 -5 202 4 3 66 5 137 4 l131 -3 3 -95z"/>
<path d="M2257 1142 c-10 -11 -17 -36 -17 -60 0 -33 -4 -42 -17 -42 -32 0
-120 -58 -141 -92 -29 -48 -35 -75 -27 -124 12 -84 71 -128 218 -163 129 -31
147 -42 147 -97 0 -50 -62 -94 -133 -94 -37 0 -106 30 -126 53 -16 20 -52 22
-69 5 -7 -7 -12 -24 -12 -39 0 -35 58 -85 118 -102 41 -11 42 -12 42 -53 0
-67 40 -94 80 -54 13 13 20 33 20 60 0 29 4 40 15 40 41 0 125 62 151 112 19
36 18 112 -3 155 -24 50 -74 78 -196 109 -117 29 -157 52 -157 90 0 96 160
137 245 63 44 -39 85 -37 99 4 9 24 6 31 -24 62 -19 20 -56 43 -82 53 -46 16
-48 18 -48 54 0 25 -7 45 -20 58 -25 25 -42 25 -63 2z m54 -70 c5 -43 29 -71
60 -72 28 0 99 -58 93 -75 -9 -21 -19 -19 -65 14 -76 56 -164 53 -230 -6 -35
-32 -39 -40 -39 -83 0 -42 4 -52 31 -74 17 -14 34 -26 37 -27 9 -1 18 -3 112
-28 107 -28 124 -35 153 -71 21 -24 27 -42 27 -79 0 -65 -30 -109 -99 -143
-71 -37 -81 -46 -81 -78 0 -40 -9 -60 -26 -53 -8 3 -14 19 -14 37 0 41 -22 72
-57 80 -39 10 -103 53 -103 71 0 24 21 28 43 7 81 -74 211 -68 271 11 37 48
34 91 -7 132 -26 26 -49 36 -127 54 -117 28 -148 41 -180 76 -21 22 -25 37
-25 85 0 51 4 63 30 91 17 17 53 42 82 55 54 24 75 50 73 87 -3 35 -1 39 18
35 12 -2 19 -16 23 -46z"/>
<path d="M2972 645 c-29 -130 -45 -181 -72 -234 -93 -185 -255 -312 -462 -361
-145 -35 -151 -38 -84 -39 166 -3 392 120 499 272 92 129 140 260 135 365 l-3
57 -13 -60z"/>
<path d="M349 651 l-39 -39 0 -123 c0 -106 3 -128 19 -153 33 -50 53 -55 219
-56 142 0 156 2 184 21 45 32 58 74 58 184 0 113 -15 156 -62 185 -29 18 -50
20 -187 20 l-153 0 -39 -39z m354 -3 c42 -22 46 -38 47 -166 0 -117 -1 -124
-25 -147 -23 -24 -28 -25 -170 -25 -151 0 -195 9 -209 45 -3 9 -6 69 -6 134 0
109 2 119 23 138 12 11 29 23 37 26 30 11 281 7 303 -5z"/>
<path d="M430 623 c-44 -16 -50 -33 -50 -133 0 -83 3 -101 21 -124 20 -26 23
-26 143 -26 167 0 166 -1 166 140 0 105 -1 109 -26 129 -23 18 -40 21 -133 20
-58 0 -113 -3 -121 -6z m258 -133 c2 -80 0 -97 -15 -107 -18 -13 -216 -19
-247 -7 -13 5 -16 24 -16 103 0 54 3 101 7 105 4 3 66 5 137 4 l131 -3 3 -95z"/>
<path d="M979 651 l-39 -39 0 -127 0 -127 39 -39 39 -39 159 0 c149 0 162 1
188 22 42 33 55 76 55 183 0 113 -15 156 -62 185 -29 18 -50 20 -187 20 l-153
0 -39 -39z m361 -6 c43 -22 44 -32 40 -268 0 -10 -11 -29 -25 -42 -23 -24 -28
-25 -175 -25 l-152 0 -29 29 c-29 29 -29 30 -29 148 0 111 2 121 23 140 33 30
40 31 185 32 99 1 140 -3 162 -14z"/>
<path d="M1060 623 c-44 -17 -50 -33 -50 -133 0 -84 3 -101 21 -124 l22 -28
127 4 c89 2 132 7 143 17 14 11 17 33 17 121 0 143 -2 144 -154 147 -61 1
-118 0 -126 -4z m258 -133 c2 -80 0 -97 -15 -107 -23 -17 -234 -18 -251 -1
-13 13 -17 189 -5 202 4 3 66 5 137 4 l131 -3 3 -95z"/>
<path d="M14 197 c7 -91 90 -175 183 -184 55 -6 50 7 -9 26 -57 19 -111 64
-134 112 -11 24 -26 55 -33 69 -10 22 -11 20 -7 -23z"/>
</g>
</svg>
