<?xml version="1.0" standalone="no"?>
<!DOCTYPE svg PUBLIC "-//W3C//DTD SVG 20010904//EN"
 "http://www.w3.org/TR/2001/REC-SVG-20010904/DTD/svg10.dtd">
<svg version="1.0" xmlns="http://www.w3.org/2000/svg"
 width="300.000000pt" height="300.000000pt" viewBox="0 0 300.000000 300.000000"
 preserveAspectRatio="xMidYMid meet">
<metadata>
Created by potrace 1.10, written by Peter Selinger 2001-2011
</metadata>
<g transform="translate(0.000000,300.000000) scale(0.100000,-0.100000)"
fill="#000000" stroke="none">
<path d="M493 2990 c-12 -5 -30 -21 -40 -37 -17 -25 -18 -62 -18 -549 l0 -523
29 -30 30 -31 183 0 183 0 0 -54 c0 -57 16 -86 49 -86 37 0 41 18 41 213 l0
189 29 29 c48 47 116 38 146 -21 12 -24 15 -83 15 -348 0 -343 1 -348 51 -340
17 2 25 14 36 50 16 55 43 78 94 78 29 0 43 -7 63 -31 22 -26 26 -40 26 -98 0
-71 10 -91 45 -91 28 0 45 19 45 51 0 42 42 79 90 79 63 0 90 -33 90 -107 0
-79 8 -102 36 -109 31 -8 50 9 58 50 9 46 46 78 91 79 30 1 43 -5 66 -31 l29
-32 0 -193 c0 -179 -3 -212 -45 -477 -25 -157 -52 -306 -61 -332 -20 -60 -78
-126 -145 -163 l-54 -30 -255 -3 c-282 -4 -318 1 -393 51 -94 63 -109 96 -199
458 -76 306 -80 326 -69 368 12 41 91 141 112 141 5 0 9 -39 9 -88 0 -81 -2
-88 -22 -97 -17 -7 -23 -18 -23 -40 0 -22 6 -33 23 -40 19 -8 22 -17 22 -63 0
-64 13 -92 43 -92 47 0 47 0 47 435 0 435 0 435 -47 435 -36 0 -43 -30 -43
-184 l0 -145 -69 -56 c-105 -85 -144 -155 -143 -259 0 -60 143 -627 174 -693
35 -74 102 -139 186 -180 l76 -38 285 0 c276 0 288 1 344 23 105 43 207 159
236 267 5 22 29 157 53 300 41 253 43 266 43 492 l0 231 -30 43 c-16 23 -46
50 -65 60 -42 23 -120 25 -160 4 -17 -9 -30 -11 -30 -6 0 19 -65 84 -97 97
-42 18 -111 18 -145 0 -25 -13 -27 -12 -50 22 -36 56 -91 84 -158 79 -30 -2
-63 -8 -73 -12 -16 -7 -18 0 -15 101 l3 109 387 3 c375 2 388 3 398 22 8 14 8
26 0 40 -10 19 -23 20 -398 22 l-387 3 0 60 0 60 628 3 628 2 -3 -62 -3 -63
-162 -3 c-150 -2 -163 -4 -173 -22 -8 -14 -8 -26 0 -40 10 -19 21 -20 188 -20
l178 0 30 31 29 30 3 261 c2 144 1 272 -2 285 -8 31 -40 47 -66 33 -18 -10
-20 -23 -22 -173 l-3 -162 -629 -3 -630 -2 -30 36 c-34 42 -96 73 -145 74 -49
0 -115 -35 -142 -75 l-24 -35 -175 2 -175 3 0 390 0 390 975 0 975 0 5 -154
c5 -146 6 -154 27 -162 13 -5 28 -3 40 6 16 12 18 29 18 172 0 174 -8 203 -61
223 -32 13 -1981 12 -2011 0z m367 -1025 l0 -65 -167 2 -168 3 -3 63 -3 62
171 0 170 0 0 -65z"/>
<path d="M2167 2813 c-4 -3 -7 -19 -7 -35 0 -36 28 -48 108 -48 83 0 128 40
90 78 -13 13 -179 17 -191 5z"/>
<path d="M208 2739 c-32 -18 -22 -56 21 -85 43 -28 78 -29 95 -1 15 23 0 46
-50 74 -45 26 -43 26 -66 12z"/>
<path d="M846 2740 c-69 -21 -111 -101 -82 -158 19 -37 36 -47 136 -81 66 -23
75 -29 78 -53 3 -21 -3 -30 -27 -42 -58 -30 -124 -9 -136 44 -13 57 -85 49
-85 -10 0 -70 81 -135 170 -135 101 0 176 70 167 153 -7 62 -44 98 -132 124
-38 11 -77 27 -85 35 -13 13 -13 16 4 29 36 26 106 9 106 -27 0 -15 49 -22 65
-9 36 30 6 91 -59 121 -44 20 -74 22 -120 9z"/>
<path d="M1136 2734 c-24 -23 -24 -395 0 -418 12 -13 41 -16 150 -16 144 0
174 7 174 43 0 41 -17 47 -137 47 l-113 0 0 45 0 45 106 0 c115 0 144 9 144
43 0 41 -17 47 -137 47 l-113 0 0 45 0 45 113 0 c120 0 137 6 137 47 0 36 -30
43 -174 43 -109 0 -138 -3 -150 -16z"/>
<path d="M1539 2733 c-11 -12 -14 -60 -14 -210 0 -181 1 -196 19 -209 15 -10
54 -14 153 -14 120 0 135 2 153 20 24 24 25 34 4 54 -12 13 -39 16 -130 16
l-114 0 0 170 c0 157 -1 170 -19 180 -27 14 -36 13 -52 -7z"/>
<path d="M1946 2734 c-13 -13 -16 -46 -16 -209 0 -163 3 -196 16 -209 12 -13
41 -16 150 -16 144 0 174 7 174 43 0 41 -17 47 -137 47 l-113 0 0 163 c0 146
-2 166 -18 180 -23 21 -36 21 -56 1z"/>
<path d="M2726 2727 c-50 -28 -65 -51 -50 -74 17 -28 52 -27 95 1 44 30 53 68
20 86 -25 13 -19 14 -65 -13z"/>
<path d="M167 2542 c-22 -24 -21 -35 1 -55 21 -19 83 -22 113 -7 21 12 25 50
7 68 -19 19 -102 15 -121 -6z"/>
<path d="M2712 2548 c-18 -18 -14 -56 7 -68 11 -5 38 -10 60 -10 32 0 44 5 57
25 16 24 16 27 -1 45 -21 23 -103 28 -123 8z"/>
<path d="M235 2379 c-35 -22 -46 -35 -43 -51 7 -46 63 -49 114 -5 21 18 26 29
21 49 -10 38 -40 40 -92 7z"/>
<path d="M2698 2403 c-10 -3 -21 -16 -25 -30 -5 -21 0 -31 21 -50 51 -43 107
-41 114 4 4 30 -75 84 -110 76z"/>
<path d="M1356 944 c-24 -23 -24 -495 0 -518 20 -21 37 -20 57 2 15 16 17 49
17 259 0 220 -2 241 -18 256 -23 21 -36 21 -56 1z"/>
<path d="M1590 815 c-6 -8 -24 -92 -40 -187 -22 -142 -25 -177 -15 -193 15
-25 35 -29 57 -13 13 10 24 55 43 171 28 178 30 208 13 225 -16 16 -43 15 -58
-3z"/>
</g>
</svg>
