<svg width="190" height="57" viewBox="0 0 190 57" fill="none" xmlns="http://www.w3.org/2000/svg">
<g clip-path="url(#clip0)">
<path fill-rule="evenodd" clip-rule="evenodd" d="M182.417 56.2421H7.11356C3.24734 56.2421 0.0986328 53.086 0.0986328 49.2421V7.24206C0.0986328 3.38421 3.24734 0.242065 7.11356 0.242065H182.417C186.28 0.242065 189.432 3.38421 189.432 7.24206V49.2421C189.432 53.086 186.28 56.2421 182.417 56.2421Z" fill="black"/>
<path fill-rule="evenodd" clip-rule="evenodd" d="M182.417 1.36276C185.66 1.36276 188.314 4.00566 188.314 7.24206V49.2421C188.314 52.4785 185.677 55.1214 182.417 55.1214H7.11356C3.87081 55.1214 1.2167 52.4785 1.2167 49.2421V7.24206C1.2167 4.00566 3.85339 1.36276 7.11356 1.36276H182.417ZM182.417 0.242065H7.11356C3.24734 0.242065 0.0986328 3.39818 0.0986328 7.24206V49.2421C0.0986328 53.0999 3.24734 56.2421 7.11356 56.2421H182.417C186.28 56.2421 189.432 53.0999 189.432 49.2421V7.24206C189.432 3.39818 186.28 0.242065 182.417 0.242065Z" fill="#A6A6A6"/>
<path d="M99.8397 18.7667C98.5753 18.7667 97.5095 18.3233 96.6666 17.4505C95.8306 16.6021 95.3639 15.4326 95.3848 14.2386C95.3848 12.9642 95.8167 11.8854 96.6666 11.0301C97.506 10.1573 98.5718 9.71387 99.8362 9.71387C101.087 9.71387 102.152 10.1573 103.009 11.0301C103.859 11.9134 104.291 12.9922 104.291 14.2386C104.277 15.5164 103.845 16.5952 103.009 17.447C102.17 18.3268 101.104 18.7667 99.8397 18.7667ZM62.2189 18.7667C60.9824 18.7667 59.9096 18.3303 59.0319 17.468C58.1611 16.6091 57.7188 15.5233 57.7188 14.242C57.7188 12.9607 58.1611 11.875 59.0319 11.0161C59.8922 10.1538 60.965 9.71736 62.2189 9.71736C62.8319 9.71736 63.4275 9.83955 63.9987 10.0874C64.5595 10.3283 65.0158 10.6565 65.3537 11.058L65.4373 11.1593L64.4933 12.0879L64.3958 11.9727C63.8629 11.3373 63.1489 11.0266 62.205 11.0266C61.3621 11.0266 60.6271 11.3268 60.0211 11.9204C59.4115 12.5174 59.1015 13.2994 59.1015 14.2455C59.1015 15.1917 59.4115 15.9737 60.0211 16.5707C60.6271 17.1642 61.3621 17.4645 62.205 17.4645C63.1036 17.4645 63.8594 17.1642 64.4481 16.5707C64.7964 16.2216 65.0123 15.7328 65.0889 15.1149H62.0622V13.8091H66.3881L66.4056 13.9278C66.4369 14.1478 66.4682 14.3747 66.4682 14.5842C66.4682 15.7887 66.106 16.7627 65.3885 17.4819C64.5735 18.3338 63.5076 18.7667 62.2189 18.7667ZM112.239 18.5817H110.905L106.82 12.0286L106.855 13.2086V18.5782H105.521V9.9024H107.043L107.084 9.96873L110.926 16.1413L110.891 14.9647V9.9024H112.239V18.5817ZM89.8153 18.5817H88.4639V11.2081H86.1198V9.9024H92.156V11.2081H89.8119V18.5817H89.8153ZM85.0191 18.5817H83.6712V9.9024H85.0191V18.5817ZM77.4434 18.5817H76.0955V11.2081H73.7514V9.9024H79.7875V11.2081H77.4434V18.5817ZM72.898 18.5677H67.7291V9.9024H72.898V11.2081H69.0806V13.5892H72.5253V14.8809H69.0806V17.262H72.898V18.5677ZM97.6558 16.5533C98.2583 17.1573 98.9898 17.461 99.8397 17.461C100.714 17.461 101.428 17.1642 102.024 16.5533C102.616 15.9598 102.915 15.1812 102.915 14.242C102.915 13.3029 102.616 12.5208 102.027 11.9308C101.424 11.3268 100.69 11.0231 99.8431 11.0231C98.9689 11.0231 98.2549 11.3199 97.6627 11.9308C97.0706 12.5243 96.7711 13.3029 96.7711 14.242C96.7711 15.1812 97.0671 15.9632 97.6558 16.5533Z" fill="white"/>
<path fill-rule="evenodd" clip-rule="evenodd" d="M95.2595 30.6999C91.968 30.6999 89.3 33.2032 89.3 36.656C89.3 40.0775 91.9854 42.6122 95.2595 42.6122C98.551 42.6122 101.219 40.0915 101.219 36.656C101.219 33.2032 98.551 30.6999 95.2595 30.6999ZM95.2595 40.2521C93.4588 40.2521 91.9088 38.7578 91.9088 36.6421C91.9088 34.4949 93.4623 33.0321 95.2595 33.0321C97.0603 33.0321 98.6103 34.4949 98.6103 36.6421C98.6137 38.7718 97.0603 40.2521 95.2595 40.2521ZM82.2572 30.6999C78.9656 30.6999 76.2976 33.2032 76.2976 36.656C76.2976 40.0775 78.9831 42.6122 82.2572 42.6122C85.5487 42.6122 88.2167 40.0915 88.2167 36.656C88.2167 33.2032 85.5452 30.6999 82.2572 30.6999ZM82.2572 40.2521C80.4564 40.2521 78.9064 38.7578 78.9064 36.6421C78.9064 34.4949 80.4599 33.0321 82.2572 33.0321C84.0579 33.0321 85.6079 34.4949 85.6079 36.6421C85.6079 38.7718 84.0579 40.2521 82.2572 40.2521ZM66.7853 32.5189V35.0396H72.8215C72.6369 36.4536 72.1701 37.4974 71.4561 38.2132C70.5714 39.0999 69.206 40.0635 66.7992 40.0635C63.0897 40.0635 60.1883 37.061 60.1883 33.3428C60.1883 29.6246 63.0897 26.6221 66.7992 26.6221C68.802 26.6221 70.2614 27.4146 71.3447 28.4271L73.128 26.6396C71.6233 25.1942 69.6205 24.0875 66.8132 24.0875C61.7244 24.0875 57.4541 28.2421 57.4541 33.3289C57.4541 38.4296 61.7209 42.5703 66.8132 42.5703C69.5613 42.5703 71.6233 41.6695 73.2534 39.9728C74.9148 38.3074 75.4408 35.9578 75.4408 34.062C75.4408 33.472 75.3955 32.9413 75.3014 32.491H66.7818C66.7853 32.4875 66.7853 32.5189 66.7853 32.5189ZM130.069 34.481C129.571 33.1438 128.067 30.686 124.981 30.686C121.923 30.686 119.38 33.0984 119.38 36.6421C119.38 39.9867 121.895 42.5982 125.277 42.5982C127.994 42.5982 129.575 40.9329 130.226 39.9553L128.21 38.6007C127.541 39.5957 126.611 40.2486 125.291 40.2486C123.957 40.2486 123.023 39.6411 122.403 38.4436L130.348 35.1443C130.348 35.1478 130.069 34.481 130.069 34.481ZM121.968 36.471C121.905 34.1703 123.751 33.0007 125.071 33.0007C126.113 33.0007 126.98 33.5139 127.276 34.261L121.968 36.471ZM115.514 42.2421H118.123V24.7438H115.514V42.2421ZM111.229 32.0231H111.135C110.547 31.3214 109.429 30.686 108.001 30.686C105.037 30.686 102.306 33.3009 102.306 36.6595C102.306 40.0042 105.023 42.5877 108.001 42.5877C109.411 42.5877 110.547 41.9488 111.135 41.2331H111.229V42.0885C111.229 44.3613 110.017 45.5867 108.063 45.5867C106.465 45.5867 105.472 44.4346 105.068 43.471L102.8 44.4206C103.452 45.9917 105.19 47.9363 108.06 47.9363C111.118 47.9363 113.709 46.1314 113.709 41.7289V31.0421H111.243V32.0231C111.247 32.0231 111.229 32.0231 111.229 32.0231ZM108.234 40.2521C106.433 40.2521 104.929 38.7438 104.929 36.6595C104.929 34.5578 106.433 33.0356 108.234 33.0356C110.017 33.0356 111.4 34.5752 111.4 36.6595C111.418 38.7438 110.021 40.2521 108.234 40.2521ZM142.285 24.7438H136.046V42.2421H138.655V35.6156H142.288C145.176 35.6156 148.014 33.5174 148.014 30.1867C148.014 26.856 145.186 24.7438 142.285 24.7438ZM142.361 33.1718H138.652V27.1668H142.361C144.315 27.1668 145.419 28.7832 145.419 30.1693C145.419 31.5413 144.301 33.1718 142.361 33.1718ZM158.471 30.6685C156.576 30.6685 154.622 31.5099 153.814 33.3428L156.126 34.3064C156.625 33.3428 157.537 33.0146 158.502 33.0146C159.853 33.0146 161.219 33.8246 161.25 35.27V35.455C160.783 35.1897 159.759 34.7847 158.533 34.7847C156.036 34.7847 153.504 36.1533 153.504 38.7194C153.504 41.069 155.552 42.5772 157.833 42.5772C159.585 42.5772 160.55 41.7847 161.153 40.8665H161.247V42.2211H163.761V35.5179C163.761 32.3967 161.449 30.6685 158.471 30.6685ZM158.143 40.2521C157.29 40.2521 156.095 39.8331 156.095 38.7578C156.095 37.4032 157.586 36.89 158.857 36.89C160.007 36.89 160.55 37.1378 161.233 37.48C161.045 39.0511 159.721 40.2381 158.143 40.2521ZM172.936 31.0421L169.94 38.6321H169.846L166.743 31.0421H163.936L168.592 41.6521L165.938 47.5488H168.655L175.82 31.0421H172.936ZM149.453 42.2421H152.062V24.7438H149.453V42.2421Z" fill="white"/>
<path fill-rule="evenodd" clip-rule="evenodd" d="M14.6726 10.7892C14.2685 11.2256 14.0352 11.8925 14.0352 12.7653V43.7224C14.0352 44.5952 14.2685 45.262 14.6865 45.681L14.7945 45.7752L32.0984 28.4306V28.0431L14.7805 10.6949L14.6726 10.7892Z" fill="url(#paint0_linear)"/>
<path fill-rule="evenodd" clip-rule="evenodd" d="M37.8545 34.2296L32.083 28.4445V28.0396L37.8545 22.2545L37.9799 22.3313L44.8067 26.2206C46.7608 27.3238 46.7608 29.1463 44.8067 30.2635L37.9799 34.1528L37.8545 34.2296Z" fill="url(#paint1_linear)"/>
<path fill-rule="evenodd" clip-rule="evenodd" d="M37.9806 34.1528L32.0838 28.2421L14.6719 45.6949C15.3093 46.3792 16.3786 46.456 17.5733 45.7892L37.9806 34.1528Z" fill="url(#paint2_linear)"/>
<path fill-rule="evenodd" clip-rule="evenodd" d="M37.9806 22.3314L17.5733 10.7124C16.3786 10.0281 15.3058 10.1224 14.6719 10.8067L32.0838 28.2421L37.9806 22.3314Z" fill="url(#paint3_linear)"/>
<path opacity="0.2" fill-rule="evenodd" clip-rule="evenodd" d="M37.8551 34.0271L17.587 45.5693C16.455 46.2222 15.4449 46.1768 14.7935 45.5833L14.6855 45.6915L14.7935 45.7858C15.4449 46.3758 16.455 46.4247 17.587 45.7718L37.9944 34.1528L37.8551 34.0271Z" fill="black"/>
<path opacity="0.12" fill-rule="evenodd" clip-rule="evenodd" d="M44.8066 30.061L37.8369 34.0271L37.9623 34.1528L44.7891 30.2635C45.7679 29.7049 46.2486 28.9717 46.2486 28.2421C46.1893 28.9124 45.6913 29.5478 44.8066 30.061Z" fill="black"/>
<path opacity="0.25" fill-rule="evenodd" clip-rule="evenodd" d="M17.574 10.9149L44.8082 26.4231C45.6929 26.9224 46.191 27.5753 46.2676 28.2421C46.2676 27.5124 45.7869 26.7792 44.8082 26.2206L17.574 10.7124C15.62 9.5917 14.0352 10.5274 14.0352 12.7653V12.9678C14.0352 10.7264 15.62 9.80816 17.574 10.9149Z" fill="white"/>
</g>
<defs>
<linearGradient id="paint0_linear" x1="30.5463" y1="12.4313" x2="2.81973" y2="19.8017" gradientUnits="userSpaceOnUse">
<stop stop-color="#00A0FF"/>
<stop offset="0.00657" stop-color="#00A1FF"/>
<stop offset="0.2601" stop-color="#00BEFF"/>
<stop offset="0.5122" stop-color="#00D2FF"/>
<stop offset="0.7604" stop-color="#00DFFF"/>
<stop offset="1" stop-color="#00E3FF"/>
</linearGradient>
<linearGradient id="paint1_linear" x1="47.355" y1="28.2421" x2="13.5587" y2="28.2421" gradientUnits="userSpaceOnUse">
<stop stop-color="#FFE000"/>
<stop offset="0.4087" stop-color="#FFBD00"/>
<stop offset="0.7754" stop-color="#FFA500"/>
<stop offset="1" stop-color="#FF9C00"/>
</linearGradient>
<linearGradient id="paint2_linear" x1="34.7742" y1="31.4583" x2="12.445" y2="68.952" gradientUnits="userSpaceOnUse">
<stop stop-color="#FF3A44"/>
<stop offset="1" stop-color="#C31162"/>
</linearGradient>
<linearGradient id="paint3_linear" x1="10.2874" y1="0.492391" x2="20.2493" y2="17.2377" gradientUnits="userSpaceOnUse">
<stop stop-color="#32A071"/>
<stop offset="0.0685" stop-color="#2DA771"/>
<stop offset="0.4762" stop-color="#15CF74"/>
<stop offset="0.8009" stop-color="#06E775"/>
<stop offset="1" stop-color="#00F076"/>
</linearGradient>
<clipPath id="clip0">
<rect width="189.333" height="56" fill="white" transform="translate(0.0986328 0.242065)"/>
</clipPath>
</defs>
</svg>
