<?xml version="1.0" standalone="no"?>
<!DOCTYPE svg PUBLIC "-//W3C//DTD SVG 20010904//EN"
 "http://www.w3.org/TR/2001/REC-SVG-20010904/DTD/svg10.dtd">
<svg version="1.0" xmlns="http://www.w3.org/2000/svg"
 width="2157.000000pt" height="2142.000000pt" viewBox="0 0 2157.000000 2142.000000"
 preserveAspectRatio="xMidYMid meet">
<metadata>
Created by potrace 1.16, written by Peter Selinger 2001-2019
</metadata>
<g transform="translate(0.000000,2142.000000) scale(0.100000,-0.100000)"
fill="#000000" stroke="none">
<path d="M0 10710 l0 -10710 10785 0 10785 0 0 10710 0 10710 -10785 0 -10785
0 0 -10710z m10940 9131 l0 -118 -287 -7 c-159 -4 -372 -13 -475 -20 -136 -8
-189 -8 -192 0 -2 6 -7 60 -11 121 l-7 111 123 7 c257 16 411 22 627 23 l222
2 0 -119z m895 59 c197 -22 764 -112 786 -126 6 -4 -34 -221 -43 -229 -2 -3
-63 6 -134 20 -186 35 -423 72 -623 95 -96 11 -175 21 -176 22 -3 5 16 212 21
226 2 9 15 11 36 8 18 -3 78 -11 133 -16z m-2571 -186 c10 -63 17 -116 15
-118 -2 -2 -94 -20 -204 -41 -110 -20 -315 -66 -455 -101 -140 -35 -257 -60
-261 -56 -15 17 -62 213 -53 221 19 20 626 161 874 204 67 12 63 17 84 -109z
m4416 -224 c276 -91 544 -191 563 -210 7 -6 -64 -201 -79 -219 -1 -2 -74 25
-161 60 -159 63 -680 239 -707 239 -27 0 -26 16 7 128 31 108 32 111 57 105
14 -3 158 -49 320 -103z m-6037 -206 c21 -59 35 -110 30 -114 -4 -4 -95 -42
-201 -84 -203 -80 -434 -182 -564 -247 -43 -22 -82 -39 -88 -39 -8 0 -110 189
-110 206 0 20 823 379 880 383 10 1 27 -32 53 -105z m7385 -360 c225 -119 435
-239 626 -359 102 -64 106 -68 94 -89 -65 -103 -114 -176 -121 -176 -4 0 -44
24 -90 53 -150 96 -343 208 -577 332 -80 43 -146 78 -148 80 -3 3 101 215 106
215 1 0 51 -25 110 -56z m-8899 -364 c34 -56 61 -103 61 -105 0 -2 -66 -45
-147 -96 -156 -97 -454 -299 -562 -381 -35 -26 -67 -48 -71 -48 -6 0 -64 73
-142 176 -8 11 128 114 372 280 116 79 419 273 427 274 1 0 29 -45 62 -100z
m10338 -567 c165 -129 414 -342 565 -484 l68 -64 -83 -86 -84 -86 -114 105
c-135 125 -327 288 -485 413 -63 50 -114 94 -114 98 0 12 131 181 140 181 4 0
52 -35 107 -77z m-11689 -428 c39 -44 71 -84 71 -90 0 -5 -38 -43 -83 -83
-102 -91 -370 -354 -494 -485 l-93 -98 -82 77 c-45 42 -83 80 -85 84 -10 26
663 688 688 678 4 -2 39 -39 78 -83z m12919 -740 c200 -229 534 -650 522 -658
-45 -35 -178 -127 -186 -129 -6 -2 -56 56 -111 129 -120 159 -278 353 -386
477 -44 50 -85 98 -93 107 -12 14 -3 25 74 93 47 42 90 75 94 74 4 -2 42 -43
86 -93z m-14071 -481 c46 -36 86 -69 88 -73 3 -4 -45 -75 -107 -157 -61 -82
-181 -252 -265 -379 -85 -126 -158 -231 -163 -233 -7 -3 -117 60 -188 107 -16
10 49 116 242 396 144 208 292 405 304 405 2 0 42 -30 89 -66z m4452 -686 l-3
-123 -113 -5 c-63 -3 -115 -3 -117 0 -2 3 -7 58 -10 122 l-8 117 49 4 c27 2
84 4 127 5 l78 2 -3 -122z m5765 98 c54 -8 101 -16 103 -19 6 -5 -31 -225 -38
-232 -3 -3 -54 1 -113 10 -60 8 -110 15 -113 15 -4 0 3 99 14 193 7 55 0 53
147 33z m-863 -164 c12 -57 20 -105 19 -107 -11 -9 -215 -62 -220 -56 -9 8
-71 222 -67 227 2 2 56 17 119 33 83 21 116 26 120 18 4 -7 17 -58 29 -115z
m-3942 -1 c20 -11 20 -12 -20 -113 -23 -57 -44 -107 -48 -111 -4 -4 -53 10
-111 31 -119 44 -113 27 -68 174 l29 97 99 -34 c54 -18 107 -38 119 -44z
m-1900 -103 c23 -57 42 -108 42 -113 0 -12 -197 -112 -204 -104 -10 11 -107
212 -103 215 5 5 211 103 218 104 3 0 24 -46 47 -102z m11570 -65 c155 -266
372 -680 372 -711 0 -14 -201 -105 -210 -95 -4 4 -54 97 -109 206 -112 218
-172 329 -267 487 -34 58 -64 111 -66 118 -2 10 174 130 194 132 3 0 42 -62
86 -137z m-3954 32 c45 -25 92 -54 105 -64 l23 -18 -27 -44 c-64 -102 -98
-149 -106 -149 -15 0 -189 104 -189 113 0 13 100 207 107 207 3 0 43 -20 87
-45z m-2679 -187 c22 -35 50 -79 62 -100 l23 -36 -90 -66 c-49 -36 -93 -66
-97 -66 -9 0 -129 157 -137 180 -4 10 23 35 91 83 53 37 99 67 102 67 3 0 24
-28 46 -62z m-2284 -117 c124 -98 122 -84 34 -185 -42 -47 -79 -86 -83 -86 -9
0 -166 130 -170 141 -4 10 129 189 139 189 4 0 40 -26 80 -59z m-3393 -333
c-20 -24 -53 -63 -74 -86 l-39 -44 -65 50 c-36 28 -78 62 -95 75 l-29 25 39
48 c22 27 60 71 84 97 l45 48 85 -85 85 -85 -36 -43z m-3669 110 c53 -28 97
-52 99 -53 1 -1 -45 -98 -102 -216 -91 -187 -172 -369 -259 -584 -15 -38 -29
-59 -38 -57 -16 3 -202 73 -208 78 -17 15 378 884 402 884 5 0 53 -23 106 -52z
m12763 -115 c55 -71 102 -142 97 -147 -26 -22 -185 -126 -193 -126 -6 0 -39
41 -74 90 l-63 91 28 23 c15 13 55 46 88 74 33 28 63 51 66 51 3 1 26 -25 51
-56z m-4102 -225 c51 -40 86 -76 83 -82 -5 -8 -104 -142 -129 -175 -2 -2 -27
12 -56 30 -29 19 -57 33 -63 31 -5 -2 -7 0 -3 4 4 4 -10 20 -32 36 -22 17 -40
33 -40 37 0 15 135 191 146 191 3 0 45 -32 94 -72z m-916 -189 c37 -55 66
-102 64 -104 -11 -10 -194 -125 -199 -125 -11 0 -132 190 -125 197 12 12 181
132 186 133 3 0 36 -45 74 -101z m-4634 -258 c57 -21 106 -43 108 -49 6 -18
-60 -212 -72 -212 -15 0 -198 50 -212 58 -8 5 -2 37 20 107 36 111 44 135 48
135 2 0 50 -18 108 -39z m13593 -266 c94 -257 244 -751 232 -763 -11 -11 -220
-61 -226 -54 -3 4 -18 52 -33 107 -55 200 -148 486 -231 713 -14 41 -25 75
-23 76 18 13 215 81 220 77 4 -3 31 -73 61 -156z m-3505 18 c11 -49 24 -104
27 -124 l6 -35 -98 -18 c-54 -9 -107 -19 -119 -21 -19 -4 -23 5 -44 97 -12 57
-24 108 -27 114 -2 7 36 23 104 42 59 17 113 31 119 31 6 1 20 -38 32 -86z
m-4950 -160 c7 -3 11 -11 9 -17 -3 -6 -17 -42 -32 -80 -23 -55 -26 -72 -17
-87 7 -10 12 -22 12 -26 0 -5 -5 -1 -10 7 -16 25 -12 -10 5 -40 17 -30 19 -44
5 -35 -14 9 -12 -4 3 -20 7 -7 33 -15 58 -18 189 -23 322 -52 494 -108 33 -11
67 -22 75 -23 28 -6 148 -60 265 -119 104 -52 117 -60 133 -74 7 -7 24 -16 38
-19 13 -3 24 -10 24 -15 0 -8 54 -40 66 -39 3 1 13 -7 22 -17 9 -10 48 -43 86
-73 39 -30 79 -64 91 -75 95 -91 138 -125 119 -93 -4 7 -3 8 4 4 6 -4 9 -13 6
-20 -3 -8 3 -20 13 -27 11 -8 45 -44 76 -82 31 -37 57 -64 58 -60 0 5 4 -2 10
-15 5 -14 13 -20 20 -16 7 4 9 3 6 -3 -3 -5 1 -20 10 -32 12 -18 17 -20 25
-10 7 10 8 9 4 -6 -3 -13 8 -36 30 -65 19 -25 42 -60 51 -77 9 -18 20 -33 23
-33 4 0 15 -18 25 -40 10 -22 22 -37 26 -34 5 3 6 -2 3 -11 -4 -9 0 -23 9 -33
8 -9 27 -44 42 -77 15 -33 32 -66 38 -74 7 -7 12 -19 12 -25 2 -26 18 -66 27
-66 5 0 6 -5 2 -11 -3 -6 -2 -14 3 -18 5 -3 22 -53 38 -111 16 -58 32 -109 36
-115 3 -5 14 -55 24 -110 9 -55 19 -107 22 -115 6 -16 7 -27 23 -180 13 -117
7 -395 -10 -480 -6 -30 -19 -105 -30 -166 -11 -62 -42 -179 -69 -260 -27 -82
-51 -156 -53 -164 -2 -8 -6 -17 -9 -20 -12 -9 -94 -185 -92 -197 0 -7 -4 -10
-10 -6 -7 4 -8 0 -3 -13 4 -10 4 -15 0 -11 -4 3 -23 -19 -42 -51 -19 -31 -52
-82 -73 -114 -22 -31 -39 -59 -39 -63 0 -3 -12 -17 -26 -30 -15 -14 -23 -25
-18 -25 5 0 4 -4 -1 -8 -26 -18 -94 -105 -89 -113 3 -5 0 -9 -6 -9 -16 0 -156
-141 -152 -154 2 -6 1 -8 -3 -4 -10 10 -66 -43 -58 -55 3 -6 1 -7 -5 -4 -5 4
-36 -15 -69 -41 -32 -27 -99 -77 -149 -111 -51 -33 -95 -68 -98 -76 -3 -8 -11
-15 -18 -15 -9 0 -8 3 2 10 40 26 -6 5 -68 -30 -38 -22 -74 -40 -81 -40 -7 0
-9 -5 -5 -12 4 -6 3 -8 -4 -4 -6 3 -36 -7 -67 -24 -30 -16 -61 -30 -68 -30 -7
0 -28 -8 -47 -19 -36 -19 -73 -31 -150 -52 -36 -9 -41 -13 -25 -19 12 -4 2 -7
-30 -8 -27 0 -51 -5 -53 -11 -2 -5 -9 -8 -16 -5 -7 3 -41 -2 -77 -11 -130 -32
-223 -44 -399 -51 -194 -8 -419 8 -550 40 -137 33 -160 37 -171 30 -8 -5 -9
-3 -4 6 6 10 1 11 -21 6 -16 -4 -24 -3 -17 2 8 5 -20 18 -77 35 -49 15 -92 32
-95 37 -3 6 -13 10 -22 10 -9 0 -73 28 -142 62 -69 34 -132 62 -139 63 -8 0
-18 8 -23 18 -6 9 -15 17 -20 17 -6 0 -25 11 -42 24 -18 13 -42 27 -54 31 -13
3 -23 11 -23 16 0 5 -15 18 -32 29 -69 42 -206 158 -301 255 -43 44 -83 79
-88 77 -6 -1 -8 2 -5 6 3 5 -4 21 -17 34 -54 60 -103 122 -115 144 -7 13 -17
24 -22 24 -6 0 -10 6 -10 14 0 7 -13 30 -30 51 -16 20 -32 45 -35 56 -4 11
-11 17 -16 13 -5 -3 -9 -2 -8 3 3 17 -2 32 -14 45 -15 15 -132 252 -142 286
-4 13 -19 49 -33 80 -14 32 -27 69 -29 83 -1 15 -8 39 -15 55 -6 16 -12 36
-13 45 -1 9 -5 22 -10 28 -8 15 -47 226 -47 261 0 14 -4 30 -9 36 -5 6 -11 94
-15 195 -5 166 1 289 22 409 29 169 47 257 69 330 14 46 23 90 20 98 -2 7 0
10 5 7 6 -3 10 2 10 12 0 10 6 27 14 38 8 11 20 40 27 65 13 46 134 289 168
338 10 15 25 38 34 52 9 14 27 38 39 55 12 16 16 25 8 20 -8 -5 2 8 23 29 20
21 44 53 53 72 9 19 20 31 25 28 5 -3 9 -1 9 4 0 5 16 25 36 46 21 21 32 41
28 49 -4 6 -3 9 1 4 11 -10 76 53 68 66 -3 6 -2 7 4 4 13 -8 86 67 76 78 -5 4
-3 5 3 2 6 -4 25 6 41 21 83 75 101 91 142 118 24 16 54 36 67 45 13 9 21 19
16 24 -4 4 -2 5 5 2 6 -4 18 -1 25 7 8 7 30 21 48 31 19 10 42 23 50 30 28 24
275 143 333 161 31 10 57 21 57 24 0 4 6 7 13 7 19 1 159 43 192 58 25 12 210
43 363 62 24 3 46 12 49 19 3 8 11 14 18 14 21 0 28 19 27 65 -2 42 13 61 43
57 6 -1 0 5 -12 14 l-22 16 33 76 c19 42 41 93 51 114 l18 36 96 -45 c53 -25
102 -47 109 -50z m-8870 -363 c84 -26 102 -34 98 -48 -75 -260 -132 -485 -182
-726 -19 -94 -36 -171 -38 -173 -2 -2 -56 6 -120 18 -108 20 -115 23 -111 43
3 12 19 89 35 171 43 209 110 475 186 737 3 9 10 15 17 13 7 -2 58 -18 115
-35z m3702 -285 c3 -60 3 -113 0 -117 -3 -4 -58 -11 -121 -14 l-116 -7 -6 93
c-4 51 -7 108 -7 127 l0 34 123 -3 122 -3 5 -110z m10139 -91 l53 -6 -6 -41
c-3 -23 -8 -77 -12 -120 -3 -42 -10 -80 -15 -82 -10 -7 -222 24 -230 33 -3 4
0 54 7 112 7 58 13 109 13 113 1 7 56 4 190 -9z m3881 -600 c0 -4 11 -72 25
-153 37 -221 104 -797 93 -806 -2 -1 -55 -6 -120 -10 l-116 -7 -6 54 c-3 29
-13 125 -22 213 -15 153 -49 405 -78 585 -8 47 -13 86 -13 87 3 2 202 41 220
42 9 0 17 -2 17 -5z m-13851 -216 c17 -57 31 -106 31 -110 0 -12 -217 -95
-225 -86 -4 4 -74 232 -72 235 5 4 204 62 218 62 11 1 24 -27 48 -101z m9719
-121 c50 -17 92 -37 92 -44 0 -18 -68 -205 -78 -215 -8 -8 -196 62 -214 80 -7
7 11 67 61 196 8 21 16 26 29 21 9 -3 59 -21 110 -38z m-13868 -336 c54 -6 55
-7 53 -36 -2 -17 -7 -82 -13 -145 -16 -185 -30 -474 -30 -627 l0 -143 -120 0
-120 0 0 168 c0 209 31 740 46 790 4 13 20 13 184 -7z m4523 -413 c60 -113 67
-96 -72 -173 -66 -38 -85 -44 -92 -34 -5 8 -32 58 -59 111 l-51 97 98 50 c54
28 104 49 111 48 7 -1 37 -46 65 -99z m8944 -123 c51 -27 93 -54 93 -58 0 -17
-114 -207 -124 -207 -6 1 -40 19 -76 41 -36 23 -77 48 -92 57 -16 10 -28 21
-28 25 0 19 113 198 123 195 7 -2 54 -25 104 -53z m4670 -717 c-6 -216 -22
-454 -43 -662 l-7 -69 -86 7 c-47 4 -101 9 -120 13 l-34 6 7 71 c23 242 37
449 42 649 l7 227 120 0 120 0 -6 -242z m-13112 55 c36 -47 65 -90 65 -94 0
-10 -171 -149 -182 -149 -8 0 -120 147 -138 180 -8 14 6 29 83 83 51 36 95 66
99 66 4 1 37 -38 73 -86z m7908 -135 c44 -35 85 -66 90 -69 10 -7 -133 -201
-145 -197 -17 7 -178 140 -178 148 0 15 130 180 141 180 6 0 47 -28 92 -62z
m-12894 -367 c11 -148 53 -496 82 -688 7 -45 10 -85 7 -88 -6 -6 -221 -45
-226 -40 -19 17 -112 784 -112 921 l0 43 53 4 c28 2 82 4 118 5 l66 2 12 -159z
m5593 -239 l75 -83 -83 -80 c-45 -43 -87 -79 -92 -79 -11 0 -96 90 -138 146
l-25 33 43 38 c23 21 61 55 83 75 22 21 45 37 51 35 6 -1 44 -39 86 -85z
m6708 -292 c-106 -118 -88 -116 -187 -17 l-87 86 84 85 83 85 88 -81 89 -81
-70 -77z m-6043 -382 l82 -83 -82 -89 -83 -89 -89 85 -90 86 84 86 c47 47 87
86 90 86 4 0 43 -37 88 -82z m11581 -74 c77 -15 92 -21 92 -37 0 -73 -203
-889 -229 -919 -4 -4 -57 8 -120 28 -94 30 -112 38 -106 52 31 80 167 612 200
782 24 122 24 122 48 116 12 -2 64 -13 115 -22z m-6262 -36 c27 -29 63 -68 79
-87 l30 -33 -85 -79 c-46 -43 -89 -79 -95 -79 -12 0 -155 164 -154 177 1 8
160 153 169 153 3 0 28 -24 56 -52z m-4589 -532 l72 -59 -30 -41 c-16 -23 -51
-65 -77 -95 l-48 -54 -92 78 -92 77 51 61 c29 34 63 76 77 94 29 36 13 43 139
-61z m-6712 -31 c39 -147 107 -369 165 -540 29 -82 59 -171 68 -197 8 -26 13
-50 10 -53 -9 -10 -211 -85 -216 -81 -15 15 -173 500 -232 714 -23 81 -46 160
-51 176 -5 16 -7 31 -5 34 10 9 221 59 228 53 3 -3 18 -51 33 -106z m10605
-95 c72 -90 72 -91 54 -112 -40 -44 -166 -140 -174 -132 -36 40 -140 178 -138
184 4 10 171 149 180 149 3 1 39 -40 78 -89z m-3167 -442 c45 -33 86 -65 91
-69 13 -11 -125 -201 -141 -194 -25 9 -182 130 -180 137 4 17 132 188 140 188
5 0 45 -28 90 -62z m2404 -140 c33 -46 63 -88 67 -95 8 -15 -181 -160 -193
-147 -44 50 -132 187 -125 194 25 25 170 130 180 130 7 0 38 -37 71 -82z
m7245 -337 c61 -25 92 -43 90 -52 -14 -62 -370 -840 -396 -867 -5 -4 -60 23
-153 75 l-62 34 93 187 c86 172 238 509 281 625 20 54 9 54 147 -2z m-8862
-79 l98 -68 -67 -102 -67 -102 -39 27 c-22 14 -68 46 -102 70 l-62 43 67 100
c37 54 69 99 70 100 2 0 48 -31 102 -68z m839 -150 c35 -52 61 -95 59 -96 -21
-17 -123 -88 -155 -108 l-42 -28 -66 101 c-36 56 -64 104 -61 107 22 22 192
128 197 123 4 -3 34 -48 68 -99z m-8439 -403 c100 -199 204 -391 294 -542 25
-43 46 -83 46 -87 0 -5 -44 -36 -97 -69 -115 -72 -87 -90 -221 143 -95 164
-332 626 -332 646 0 8 178 102 207 109 2 1 48 -89 103 -200z m10645 -321 c3
-7 11 -204 20 -438 16 -451 25 -531 71 -622 13 -26 24 -51 24 -56 0 -18 -107
-43 -166 -40 l-58 3 -24 75 c-25 81 -52 239 -52 308 0 29 -6 48 -21 63 -20 20
-28 21 -108 15 -103 -8 -218 -31 -237 -47 -19 -15 -18 -208 0 -304 8 -38 10
-75 6 -80 -13 -15 -169 -90 -175 -83 -3 3 -17 88 -30 189 -34 247 -33 246 -61
264 -37 24 -32 71 13 129 l36 47 16 234 c18 257 19 262 90 292 31 13 36 13 60
-5 l26 -19 -3 -243 -2 -243 137 7 c76 4 165 12 198 19 l60 12 3 244 c2 254 4
264 47 281 33 14 125 12 130 -2z m663 -68 c61 -44 108 -122 169 -282 30 -79
65 -157 78 -174 24 -31 27 -32 111 -35 97 -4 114 -16 114 -79 0 -46 -25 -70
-80 -77 -23 -3 -44 -11 -47 -18 -11 -31 64 -229 125 -325 l35 -54 -48 -43
c-48 -44 -83 -60 -110 -49 -8 3 -63 104 -122 225 -58 121 -110 218 -115 215
-4 -3 -26 -7 -47 -9 -46 -4 -291 -62 -307 -73 -5 -4 -23 -47 -38 -95 -47 -149
-96 -237 -132 -237 -27 0 -95 33 -104 51 -8 14 29 122 159 471 93 249 174 473
181 498 6 25 14 53 16 63 7 24 62 57 95 57 14 0 45 -13 67 -30z m750 4 l23 -7
-7 -452 -7 -452 144 -6 c79 -4 259 -9 399 -13 220 -5 258 -8 280 -23 l25 -18
3 260 c2 143 7 316 11 385 9 138 11 142 83 164 31 9 41 8 63 -6 l25 -16 0
-460 c0 -444 -1 -460 -19 -470 -28 -15 -77 -12 -112 5 -32 17 -49 49 -49 93
l-1 27 -13 -30 c-7 -16 -28 -41 -47 -54 l-33 -24 -485 2 c-267 1 -488 4 -490
7 -2 2 1 28 8 56 21 97 31 300 31 671 l0 367 73 0 c39 0 82 -3 95 -6z m-9410
-35 c59 -12 95 -47 111 -104 13 -47 15 -145 3 -145 -5 0 -26 16 -48 35 -101
91 -213 113 -318 61 -166 -81 -276 -266 -276 -462 0 -151 37 -222 143 -273
158 -78 338 -38 581 130 95 65 107 71 140 65 90 -17 87 -68 -9 -149 -201 -168
-385 -247 -581 -247 -305 0 -504 216 -464 501 13 94 18 111 52 193 85 206 264
352 493 400 40 8 125 6 173 -5z m2380 -5 c30 -20 28 -36 -14 -145 -20 -52 -78
-217 -130 -367 -95 -278 -168 -469 -210 -554 -28 -55 -44 -59 -109 -28 -69 33
-74 54 -37 162 31 93 88 288 94 320 2 11 -47 68 -132 155 -247 252 -280 289
-280 316 0 13 7 30 15 37 23 19 91 24 142 10 42 -11 66 -31 199 -166 l151
-153 38 102 c39 106 94 223 126 268 20 29 73 58 104 59 11 0 31 -7 43 -16z
m-1253 -38 c95 -25 197 -80 218 -116 60 -101 -54 -198 -355 -301 -70 -23 -124
-47 -121 -53 3 -5 1 -6 -6 -2 -16 10 -83 -13 -75 -26 4 -7 2 -8 -4 -4 -7 4
-19 3 -27 -1 -12 -7 28 -33 152 -103 321 -179 528 -299 560 -325 43 -34 46
-86 8 -111 -34 -22 -105 -29 -150 -14 -21 7 -140 81 -265 164 -219 147 -381
242 -365 216 6 -10 4 -12 -8 -7 -15 6 -17 -7 -17 -136 0 -164 -7 -188 -62
-201 -58 -15 -99 2 -123 49 -19 38 -20 67 -26 485 l-7 445 25 23 c31 28 55 28
90 -2 l28 -24 39 20 c67 34 160 48 301 43 74 -2 156 -10 190 -19z m10261 -47
l64 -51 -19 -26 c-18 -26 -229 -281 -241 -292 -3 -3 -29 -33 -58 -67 -69 -80
-66 -86 118 -224 118 -88 158 -127 181 -170 56 -111 -21 -211 -116 -150 -16
11 -99 82 -183 159 -88 80 -160 139 -170 138 -9 -2 -44 -43 -77 -92 -82 -121
-150 -189 -199 -198 -58 -11 -113 2 -136 31 -39 49 -29 70 106 229 69 82 134
160 144 174 l18 25 -120 150 c-200 251 -212 274 -162 314 34 27 103 28 132 4
11 -10 77 -87 147 -171 116 -140 128 -152 143 -139 10 9 91 104 182 211 91
108 169 196 174 196 4 0 37 -23 72 -51z m-8186 -7 c88 -26 141 -49 165 -72 21
-20 21 -20 43 10 21 28 27 30 85 30 34 0 143 -7 242 -15 220 -18 354 -19 505
-3 63 6 126 12 139 12 33 1 60 -39 67 -100 l6 -50 -76 -17 c-55 -12 -124 -17
-246 -17 -168 0 -170 0 -175 -22 -14 -61 -37 -355 -42 -535 l-6 -201 -99 -7
c-54 -4 -102 -5 -105 -1 -3 3 4 167 16 363 24 405 24 406 12 399 -5 -4 -11 -2
-13 3 -1 5 -67 11 -145 14 l-143 6 0 -23 c0 -40 -59 -142 -109 -189 -109 -102
-348 -184 -596 -205 -90 -7 -90 -7 -96 -37 -4 -16 -7 -92 -8 -167 -1 -166 -3
-168 -120 -168 l-74 0 6 333 c8 432 24 521 109 592 60 51 96 62 293 89 73 10
301 -4 365 -22z m1909 -8 c189 -42 320 -168 352 -339 23 -122 -7 -321 -64
-417 -85 -145 -263 -218 -502 -205 -309 17 -475 179 -475 461 0 157 46 277
143 375 133 134 316 176 546 125z m1898 1 c36 -15 48 -42 33 -79 -17 -45 -95
-73 -296 -106 -98 -16 -193 -35 -212 -41 -47 -16 -83 -35 -76 -41 3 -4 -2 -5
-11 -5 -23 3 -53 -41 -34 -47 8 -3 154 -44 324 -92 171 -48 325 -91 342 -96
41 -11 55 -37 55 -99 0 -124 -138 -239 -381 -319 -210 -68 -357 -77 -479 -27
-112 45 -152 83 -152 145 0 19 16 41 62 84 35 32 66 58 69 58 4 0 9 -23 11
-50 3 -29 13 -59 24 -71 47 -53 147 -63 279 -29 165 42 395 179 339 202 -34
14 -516 118 -525 113 -4 -3 -10 -1 -13 4 -4 5 -24 12 -45 16 -53 9 -117 52
-136 92 -13 26 -14 41 -5 71 31 119 187 219 442 287 203 54 307 62 385 30z
m6034 -336 l99 -61 -29 -41 c-15 -23 -59 -89 -96 -147 -77 -118 -262 -378
-368 -517 l-70 -92 -59 46 c-32 26 -75 60 -94 77 l-34 31 135 180 c75 99 198
271 273 383 75 111 138 202 140 202 3 0 49 -27 103 -61z m-14870 -481 c105
-143 251 -326 395 -495 l113 -131 -86 -76 c-47 -42 -89 -76 -93 -76 -30 0
-607 723 -598 750 2 7 175 138 185 140 1 0 38 -51 84 -112z m13853 -856 l77
-73 -102 -107 c-119 -125 -351 -350 -495 -480 l-101 -91 -78 91 -79 91 45 40
c217 198 404 377 507 486 84 89 128 129 137 124 7 -5 47 -41 89 -81z m-12468
-628 c78 -67 182 -154 233 -193 50 -40 91 -77 91 -83 0 -14 -131 -178 -142
-178 -26 0 -625 512 -712 609 l-20 22 84 84 83 84 121 -112 c67 -62 184 -167
262 -233z m11209 -481 c35 -49 65 -91 65 -95 1 -22 -716 -504 -794 -534 -9 -3
-34 31 -70 94 -31 54 -56 101 -56 104 0 3 71 50 158 104 176 109 332 213 502
333 63 44 118 81 122 81 5 0 37 -39 73 -87z m-10083 -340 c156 -96 377 -222
531 -303 37 -19 67 -39 67 -43 0 -7 -96 -192 -106 -206 -11 -14 -834 466 -834
487 0 3 28 49 62 103 l63 98 25 -16 c14 -9 100 -63 192 -120z m8648 -529 c27
-59 50 -109 50 -111 0 -20 -838 -373 -885 -373 -13 0 -88 211 -78 220 5 4 82
35 173 70 159 60 547 227 640 276 25 13 46 23 47 24 2 0 25 -48 53 -106z
m-7280 -160 c180 -72 394 -149 587 -209 98 -31 179 -58 180 -59 3 -3 -58 -218
-64 -225 -12 -15 -872 287 -907 319 -8 8 73 219 84 220 3 0 57 -21 120 -46z
m5713 -437 c16 -59 27 -110 24 -113 -25 -26 -926 -219 -942 -202 -5 5 -35 186
-35 214 0 19 11 23 103 39 178 30 426 83 607 129 96 24 184 44 194 43 16 -2
25 -22 49 -110z m-4187 -17 c136 -31 771 -130 838 -130 23 0 26 -4 26 -32 0
-45 -18 -200 -24 -205 -18 -18 -922 122 -949 147 -6 5 22 166 38 218 5 14 16
15 71 2z m2528 -197 c3 -27 8 -80 12 -119 l6 -71 -64 -7 c-108 -11 -513 -26
-715 -26 l-193 0 0 118 0 119 328 8 c180 4 374 11 432 15 58 4 124 8 147 8
l41 2 6 -47z"/>
<path d="M10678 13243 l-48 -4 0 -45 c0 -53 -10 -77 -57 -125 l-34 -36 3 -89
3 -89 32 3 c17 2 41 -1 52 -7 14 -8 21 -8 24 2 3 7 6 5 6 -5 1 -23 61 -26 61
-3 0 8 16 32 35 54 l35 38 0 135 c0 170 -5 179 -112 171z"/>
<path d="M10790 13236 c0 -8 4 -17 9 -20 5 -3 10 -69 10 -145 l2 -140 -36 -39
-35 -40 2 -168 3 -169 25 0 c25 0 25 1 30 105 l5 105 48 72 47 72 0 117 0 117
44 47 c33 35 43 53 39 69 -7 29 -29 26 -57 -6 -21 -24 -26 -26 -50 -15 -14 6
-26 18 -26 26 0 14 -21 26 -46 26 -8 0 -14 -6 -14 -14z"/>
<path d="M10580 13230 c0 -5 -11 -17 -25 -26 -23 -15 -27 -15 -50 0 -28 18
-52 21 -57 6 -1 -5 -2 -85 0 -176 3 -155 4 -166 22 -171 11 -3 20 -10 20 -17
0 -6 7 2 15 18 9 17 15 56 15 100 0 71 0 72 45 118 42 44 45 51 45 103 0 42
-3 55 -15 55 -8 0 -15 -4 -15 -10z"/>
<path d="M11000 13210 c0 -11 -18 -40 -40 -64 l-40 -43 0 -122 0 -121 30 0 30
0 0 95 c0 94 0 95 35 133 21 24 35 51 37 70 1 18 6 32 10 32 5 0 7 -12 4 -27
-2 -16 -5 -33 -5 -39 -1 -6 -14 -26 -31 -44 -28 -31 -30 -39 -30 -114 0 -45 4
-85 8 -91 4 -5 39 -11 79 -11 l72 -2 6 72 c7 78 -2 116 -38 154 -15 16 -23 41
-27 79 -3 32 -10 58 -17 61 -7 2 -13 -3 -13 -12 0 -9 -4 -16 -10 -16 -5 0 -10
7 -10 15 0 9 -9 15 -25 15 -18 0 -25 -5 -25 -20z"/>
<path d="M10388 13204 c-21 -7 -50 -12 -66 -12 -15 1 -37 -4 -49 -11 -21 -11
-21 -16 -16 -134 5 -114 7 -124 31 -149 16 -18 36 -28 53 -28 15 0 39 -4 53
-10 35 -13 37 0 34 196 l-3 161 -37 -13z"/>
<path d="M11118 13214 c-4 -3 -4 -26 -2 -51 3 -32 13 -56 34 -80 28 -31 30
-39 30 -113 0 -107 0 -107 64 -102 32 2 56 0 60 -6 4 -6 13 -9 21 -5 11 4 15
21 15 60 l0 55 -81 83 c-50 52 -86 98 -94 122 -12 35 -33 52 -47 37z"/>
<path d="M11170 13199 c0 -21 24 -54 79 -110 104 -104 103 -103 107 -170 2
-34 8 -78 14 -98 5 -20 10 -92 11 -161 2 -132 6 -160 20 -160 5 0 9 118 9 264
l0 264 -40 41 c-29 29 -40 49 -40 70 0 38 -11 44 -46 27 -31 -17 -57 -8 -74
24 -11 21 -40 28 -40 9z"/>
<path d="M10138 13147 c-37 -13 -71 -26 -74 -30 -12 -12 38 -48 58 -41 27 8
56 -4 63 -27 8 -25 -19 -69 -44 -69 -25 0 -51 31 -51 62 0 13 -11 35 -24 47
-22 21 -28 22 -60 11 -41 -13 -53 -27 -37 -43 7 -7 11 -78 11 -212 l0 -201
-40 -42 c-25 -26 -40 -51 -40 -67 l0 -25 139 0 c90 0 142 4 147 11 3 6 7 62 9
124 l3 113 -40 15 c-36 14 -39 19 -36 48 2 18 10 36 19 42 19 12 62 3 83 -18
13 -13 16 -13 29 0 12 11 17 12 20 2 3 -7 6 -4 6 6 1 11 -8 30 -19 44 -18 23
-20 41 -20 149 0 143 6 137 -102 101z"/>
<path d="M11340 13154 c0 -23 17 -51 56 -92 l34 -36 0 -262 c0 -277 2 -291 47
-282 17 3 18 25 23 317 6 358 14 325 -89 355 -67 20 -71 20 -71 0z"/>
<path d="M11522 12788 l3 -322 60 -24 c33 -13 62 -27 65 -32 3 -4 20 -15 38
-24 17 -9 32 -22 32 -28 0 -6 3 -9 6 -5 7 7 33 -14 91 -70 31 -32 51 -43 73
-43 39 0 59 -37 42 -75 -10 -21 -8 -34 13 -80 14 -30 28 -69 32 -87 12 -65 17
-68 98 -68 l75 0 60 -55 c56 -51 63 -55 109 -55 75 0 101 27 110 113 6 61 11
71 49 110 l42 43 0 136 c0 108 -3 138 -15 148 -13 11 -15 -4 -15 -125 l0 -137
-80 -82 c-48 -49 -80 -91 -80 -103 0 -29 -27 -50 -48 -36 -24 14 -21 45 5 58
26 13 183 159 184 171 0 5 1 76 2 157 0 148 0 148 -26 175 l-27 27 0 -147 0
-146 -36 -44 c-20 -23 -39 -47 -44 -51 -11 -12 -50 10 -50 28 0 18 28 34 49
28 9 -2 28 8 41 22 24 25 25 34 30 172 l5 145 -45 56 c-48 60 -224 222 -302
278 l-48 34 0 -24 c0 -29 -24 -56 -50 -56 -21 0 -55 43 -46 58 2 4 -11 26 -30
47 -19 22 -37 50 -41 62 -7 28 -33 44 -60 37 -15 -4 -26 3 -42 25 -12 17 -27
31 -32 31 -5 0 -9 -24 -9 -54 0 -67 26 -106 71 -106 35 0 59 -20 59 -48 0 -22
-30 -52 -52 -52 -24 0 -51 37 -45 61 4 16 -3 32 -23 56 -27 30 -30 41 -30 97
0 49 -4 65 -16 70 -28 11 -34 6 -22 -14 9 -14 10 -25 2 -37 -20 -32 -40 -38
-68 -20 -31 21 -33 51 -6 74 11 10 20 21 20 24 0 7 -55 29 -72 29 -4 0 -7
-145 -6 -322z"/>
<path d="M9862 13035 c-47 -22 -72 -40 -72 -51 0 -9 23 -41 50 -70 28 -29 50
-61 50 -72 0 -10 9 -27 20 -37 11 -10 20 -28 20 -40 0 -30 -33 -58 -59 -50
-45 14 -50 74 -10 96 28 14 17 43 -37 99 -24 25 -44 53 -44 62 0 28 -59 2 -67
-30 -11 -45 4 -424 17 -432 9 -5 9 -9 1 -11 -6 -2 19 -3 56 -2 69 1 93 15 93
52 0 8 17 32 38 54 l37 38 5 182 c5 170 -1 247 -18 247 -4 0 -40 -16 -80 -35z"/>
<path d="M9603 12888 l-78 -53 -3 -277 c-2 -228 0 -278 11 -278 20 0 40 -44
32 -69 -7 -24 -51 -38 -74 -24 -22 14 -27 64 -8 78 22 16 28 542 6 537 -16 -4
-19 -6 -141 -116 -87 -77 -101 -96 -74 -96 25 0 46 -30 46 -64 0 -37 -21 -61
-62 -71 -22 -6 -33 -1 -58 23 l-30 30 -48 -61 c-82 -104 -84 -108 -65 -122 23
-17 9 -45 -21 -45 -38 0 -107 -95 -114 -156 -3 -29 -8 -41 -13 -33 -10 17 -10
17 -49 -60 -61 -123 -170 -445 -154 -460 2 -3 49 39 103 93 l99 99 -1 153 c-1
85 1 154 6 154 4 0 7 -71 7 -157 l0 -158 -115 -115 c-103 -104 -115 -119 -121
-160 l-7 -45 165 168 c90 92 170 168 178 168 8 1 48 3 89 5 41 1 79 8 84 13 6
6 21 11 34 11 18 0 23 -6 23 -25 0 -30 -25 -43 -51 -27 -10 7 -52 12 -93 12
-88 0 -69 13 -275 -191 -140 -138 -155 -156 -163 -197 -4 -25 -6 -48 -3 -51 3
-3 80 69 170 159 143 143 164 168 167 199 2 26 10 39 30 50 24 14 28 14 47 -3
12 -11 21 -30 21 -42 0 -28 -40 -57 -65 -48 -13 5 -60 -36 -196 -172 -173
-173 -179 -180 -179 -219 l0 -40 113 115 c176 180 108 160 540 160 l370 0 96
95 c58 56 105 95 117 95 29 0 58 24 51 42 -3 8 -22 18 -43 21 -27 5 -51 20
-85 53 -44 43 -52 47 -104 50 -63 3 -110 27 -101 50 3 9 1 12 -5 9 -7 -5 -9
75 -8 249 1 141 5 253 9 251 5 -3 8 9 8 26 -1 31 22 61 54 71 7 3 15 36 19 79
11 107 11 369 0 369 -5 0 -45 -24 -88 -52z m-311 -492 c57 -43 29 -136 -41
-136 -34 0 -71 39 -71 75 0 57 69 94 112 61z m8 -197 c51 -43 19 -129 -49
-129 -67 0 -97 88 -45 129 33 26 62 26 94 0z m-11 -184 c77 -39 24 -153 -61
-132 -29 8 -58 59 -51 88 6 23 49 59 70 59 8 0 27 -7 42 -15z m13 -364 c30
-29 32 -65 6 -94 -34 -39 -69 -44 -103 -14 -21 17 -28 32 -27 56 2 70 74 101
124 52z"/>
<path d="M10360 12710 c-7 -10 -18 -17 -22 -14 -5 3 -7 -5 -4 -18 13 -61 17
-230 6 -262 -20 -63 -34 -66 -276 -66 l-216 0 -34 -34 -35 -35 3 -138 3 -138
117 -3 c115 -3 117 -2 120 20 2 15 16 29 38 40 19 9 48 30 64 47 19 20 40 31
57 31 26 0 27 2 22 39 -5 34 -2 41 20 56 34 22 65 12 81 -26 l12 -29 57 58 57
58 -2 204 c-3 196 -4 205 -23 209 -11 2 -22 7 -25 12 -3 5 -12 0 -20 -11z
m-235 -465 c68 -67 -15 -174 -93 -119 -32 22 -44 58 -31 91 21 56 82 71 124
28z"/>
<path d="M11015 12702 c-3 -8 -5 -81 -5 -163 l0 -150 -61 -65 -60 -65 1 -82
c3 -145 17 -204 35 -147 15 49 85 48 105 -1 10 -22 19 -29 41 -29 22 0 30 6
35 26 15 58 98 51 109 -10 6 -28 13 -37 39 -46 17 -5 55 -30 83 -55 42 -37 56
-57 75 -113 27 -81 29 -181 5 -261 -10 -30 -17 -67 -17 -81 0 -31 -25 -57 -60
-62 -34 -4 -28 -19 12 -32 30 -10 78 -65 78 -90 0 -6 -5 -4 -10 4 -9 14 -14 7
-11 -13 1 -4 -12 -15 -28 -25 l-29 -17 24 -28 c13 -16 24 -39 24 -53 0 -14 4
-23 9 -20 15 10 7 -48 -9 -61 -12 -10 -13 -12 -1 -13 22 0 7 -10 -25 -16 -34
-6 -45 -14 -20 -14 13 0 16 -5 11 -19 -4 -14 0 -21 15 -26 11 -3 21 -16 22
-28 1 -12 2 -29 3 -37 0 -9 12 -31 26 -50 14 -19 29 -43 32 -52 4 -10 11 -18
16 -18 16 0 23 57 10 82 -13 23 -31 103 -22 94 3 -3 12 1 20 9 52 52 133 -32
88 -91 -8 -10 -14 -32 -14 -49 0 -16 6 -39 14 -49 33 -43 5 -96 -49 -96 -25 0
-27 -3 -24 -32 2 -24 9 -34 23 -36 31 -6 55 -33 55 -62 0 -32 -18 -50 -61 -59
-26 -5 -35 -15 -53 -59 -25 -59 -90 -142 -110 -142 -8 0 -19 -7 -26 -15 -7 -8
-36 -22 -66 -31 -49 -16 -52 -19 -47 -45 6 -31 -25 -69 -57 -69 -28 0 -60 35
-60 65 0 14 -4 25 -10 25 -6 0 -10 -48 -10 -124 0 -135 -7 -166 -48 -209 -22
-23 -26 -35 -24 -79 3 -61 6 -66 27 -44 38 38 104 2 91 -50 -4 -14 -16 -28
-26 -31 -17 -5 -20 -14 -20 -72 0 -36 4 -71 8 -76 12 -18 56 -32 90 -30 17 1
32 -3 33 -9 0 -6 4 -2 9 9 15 35 11 153 -6 187 -17 32 -14 42 28 134 12 26 48
44 89 44 56 0 184 31 259 64 130 56 238 154 225 205 -4 14 -9 77 -10 139 -2
61 -7 122 -10 135 -11 33 -56 77 -80 77 -34 0 -65 28 -65 59 0 34 20 54 55 54
37 0 55 -21 55 -63 0 -25 7 -43 21 -56 12 -10 28 -34 36 -52 12 -28 16 -31 34
-22 11 6 32 10 47 8 25 -3 27 0 30 41 3 43 3 43 -23 37 -34 -9 -75 16 -75 45
0 38 19 59 54 59 42 0 45 4 37 43 -6 26 -12 32 -36 34 -49 4 -64 39 -40 96 9
22 -15 23 -55 2 -21 -11 -30 -23 -32 -47 -2 -23 -11 -37 -29 -47 -24 -13 -29
-13 -53 2 -54 36 -23 114 41 104 18 -3 35 -1 38 4 4 5 26 14 51 20 24 6 44 17
44 24 0 15 -77 115 -88 115 -4 0 -6 -15 -4 -33 4 -38 -15 -59 -53 -59 -34 0
-55 19 -55 53 0 36 24 59 62 59 l31 0 -28 22 c-15 11 -52 31 -83 44 -50 20
-59 21 -73 8 -8 -8 -27 -14 -42 -14 -38 0 -64 43 -66 109 -1 29 -4 58 -7 62
-3 5 -1 9 5 9 18 0 26 51 10 62 -11 7 -11 11 -1 15 6 2 12 11 12 18 0 38 78
40 104 3 14 -19 15 -19 43 -1 15 10 34 23 41 30 8 7 22 18 33 23 27 15 24 27
-11 45 -24 12 -30 22 -30 48 0 42 15 57 60 57 27 0 45 9 76 38 36 33 42 44 48
96 3 32 4 61 1 64 -7 7 -56 -29 -66 -49 -4 -7 -10 -26 -14 -41 -6 -33 -44 -46
-81 -29 -19 8 -24 18 -24 45 0 43 30 68 71 59 21 -4 36 1 59 21 18 14 38 26
45 26 19 0 16 141 -3 148 -21 7 -62 -38 -62 -68 0 -29 -27 -60 -51 -60 -26 0
-59 30 -59 54 0 37 23 59 60 58 22 0 44 8 61 23 16 13 33 25 40 27 19 6 1 78
-35 143 -29 53 -37 61 -71 66 -42 7 -55 21 -55 62 0 52 -18 27 -22 -33 -3 -48
-10 -66 -31 -88 -19 -19 -25 -34 -20 -50 14 -55 -71 -85 -103 -36 -16 24 -16
27 5 69 21 43 21 88 0 101 -13 8 -11 68 3 82 21 21 66 14 84 -14 16 -24 16
-27 -4 -68 -12 -24 -22 -48 -22 -54 0 -21 21 -24 41 -6 15 14 19 31 19 85 l0
69 -42 21 c-69 35 -158 60 -179 49 -26 -15 -65 -12 -79 5 -19 23 -40 18 -40
-8 0 -23 51 -81 73 -83 7 0 20 -2 29 -2 22 -2 41 -37 33 -63 -4 -11 -17 -27
-31 -35 -22 -15 -26 -15 -49 0 -20 13 -25 25 -25 56 0 40 -14 61 -23 36 -3 -8
-4 -40 -1 -72 5 -71 31 -104 80 -104 34 0 54 -21 54 -54 0 -20 -35 -56 -55
-56 -27 0 -63 44 -58 71 3 17 -3 31 -21 48 -23 22 -26 32 -26 98 0 70 -1 74
-37 114 l-38 42 -3 193 c-2 107 -6 194 -10 195 -60 7 -133 2 -137 -9z"/>
<path d="M10456 12702 c-3 -5 -6 -109 -7 -233 -1 -187 1 -224 13 -227 8 -1 21
5 30 15 13 15 17 57 21 224 5 150 3 209 -5 217 -14 14 -44 16 -52 4z"/>
<path d="M10547 12703 c-4 -3 -7 -102 -7 -218 0 -197 -1 -214 -20 -238 -11
-14 -26 -42 -32 -63 -10 -28 -21 -40 -43 -47 -16 -5 -47 -26 -67 -45 l-38 -36
0 -127 c0 -126 0 -128 26 -148 15 -12 36 -21 48 -20 21 0 20 1 -2 11 -43 21
-43 83 0 107 25 14 29 14 57 -7 l31 -23 0 44 c0 29 7 53 20 70 13 17 20 40 20
70 0 37 5 49 26 66 28 22 78 28 89 11 9 -14 21 -12 39 6 13 12 16 39 16 125
l0 109 -44 0 c-33 0 -52 6 -73 24 l-28 24 3 156 c2 142 -2 169 -21 149z"/>
<path d="M12540 12197 l0 -115 -47 -52 c-43 -48 -46 -55 -48 -111 -2 -72 -28
-106 -88 -116 -50 -8 -29 -23 34 -23 36 0 51 5 69 25 14 15 35 25 51 25 18 0
42 14 73 43 l46 44 0 127 c0 101 -4 136 -17 164 l-18 37 -5 -141 c-4 -103 -9
-146 -20 -159 -8 -9 -19 -27 -25 -38 -14 -28 -41 -33 -54 -10 -12 24 1 46 27
48 48 3 52 17 52 185 0 128 -3 160 -15 170 -13 11 -15 -1 -15 -103z"/>
<path d="M10330 12155 c-31 -32 -39 -35 -92 -35 -52 0 -62 -4 -94 -33 -32 -29
-35 -36 -25 -55 9 -17 8 -28 -3 -51 -8 -15 -13 -31 -10 -34 3 -3 9 -45 12 -94
l7 -88 35 1 c73 2 73 2 56 20 -43 43 2 116 58 94 15 -5 29 -10 32 -10 2 0 4
23 4 51 0 45 -2 50 -17 44 -41 -17 -55 -17 -73 0 -22 20 -26 65 -8 83 7 7 26
12 43 12 17 0 36 -5 43 -12 9 -9 12 -9 12 0 0 7 18 32 40 56 43 47 47 58 27
75 -10 8 -21 2 -47 -24z"/>
<path d="M12640 12027 l0 -123 -42 -41 c-24 -23 -56 -45 -73 -49 -16 -4 -43
-18 -58 -31 -28 -23 -42 -27 -82 -24 -12 1 -32 -7 -45 -19 -27 -24 -48 -23
-64 2 -8 13 -8 23 2 38 10 17 10 20 -3 20 -8 0 -42 25 -75 55 -60 55 -60 55
-124 55 -36 0 -67 -4 -71 -9 -3 -5 -2 -41 1 -80 l7 -71 62 0 c63 0 90 -12 135
-60 42 -44 62 -50 175 -50 l110 0 119 119 118 118 -1 56 c0 36 -8 70 -20 94
l-20 38 -1 -93 0 -93 -77 -82 c-82 -86 -116 -104 -128 -67 -10 30 12 52 45 45
22 -5 35 3 83 49 45 45 57 63 62 98 12 82 -7 228 -30 228 -3 0 -5 -55 -5 -123z"/>
<path d="M12751 11912 c-1 -38 -26 -70 -136 -182 l-105 -105 -110 -3 c-62 -2
-122 -1 -135 2 -12 3 -46 27 -75 53 -47 43 -58 47 -111 51 -54 4 -59 3 -68
-19 -5 -13 -5 -28 -1 -33 5 -4 41 -10 81 -12 63 -3 76 -7 101 -31 29 -27 32
-28 176 -33 81 -3 157 -3 168 -2 12 2 72 52 133 110 120 116 127 130 96 197
-12 28 -13 28 -14 7z"/>
<path d="M11055 11822 c-5 -4 -16 -15 -24 -24 -13 -18 -13 -20 50 -96 5 -7 7
-17 4 -22 -11 -18 12 -10 30 10 38 42 105 14 105 -44 0 -64 -69 -94 -107 -47
l-20 24 1 -23 c1 -29 26 -58 44 -52 6 2 12 -1 12 -7 0 -13 47 -5 67 11 22 18
42 110 34 160 -10 59 -26 81 -51 68 -35 -19 -68 -11 -92 20 -22 30 -35 36 -53
22z"/>
<path d="M10681 11743 c2 -91 10 -138 24 -133 13 4 34 32 35 45 0 6 -5 3 -10
-5 -6 -9 -10 -10 -10 -3 0 7 11 23 24 37 31 34 85 36 106 4 8 -13 13 -27 12
-31 -1 -5 2 -6 8 -2 5 3 10 2 10 -4 0 -5 -5 -11 -12 -13 -7 -3 -9 -12 -5 -22
4 -9 11 -14 17 -11 5 3 10 -1 10 -10 0 -9 5 -13 10 -10 6 3 10 13 10 21 0 8
-4 12 -10 9 -6 -4 -10 6 -10 22 0 21 3 24 9 14 8 -12 11 -9 16 12 8 31 55 60
79 51 21 -8 20 10 0 27 -11 9 -55 16 -129 19 -103 5 -114 7 -148 33 l-37 28 1
-78z"/>
<path d="M12685 11700 c-61 -62 -123 -114 -140 -120 -16 -5 -96 -9 -177 -7
l-147 2 -33 33 c-32 30 -38 32 -111 32 -70 0 -77 -2 -77 -20 0 -11 0 -23 0
-27 0 -5 35 -10 78 -13 64 -5 87 -11 120 -33 41 -27 44 -27 203 -27 l161 0 61
59 c78 74 93 81 163 81 53 0 56 1 51 23 -22 88 -29 113 -35 119 -4 4 -57 -42
-117 -102z"/>
<path d="M10123 11633 c-1 -67 3 -103 12 -113 24 -28 27 -59 9 -93 -13 -23
-18 -59 -19 -133 l-2 -100 34 17 c19 10 42 15 51 12 14 -6 14 -4 -1 17 -9 14
-17 35 -17 47 0 50 70 82 103 48 8 -8 17 -11 21 -8 3 4 6 -1 6 -11 0 -9 4 -15
8 -12 5 3 9 49 11 103 1 54 4 134 7 177 4 79 4 80 -28 113 -31 32 -34 33 -113
33 l-82 0 0 -97z"/>
<path d="M9900 11643 c-8 -3 -56 -45 -106 -94 l-91 -89 -384 0 -384 0 -144
-142 -144 -141 7 -111 c4 -61 7 -126 7 -143 -1 -18 2 -33 6 -33 4 0 65 57 135
128 l128 127 388 3 389 3 70 67 c38 37 73 79 76 95 6 22 13 27 37 27 23 0 31
-5 36 -26 7 -29 -2 -43 -36 -49 -13 -3 -44 -24 -69 -47 -116 -111 -65 -102
-502 -93 l-380 7 -135 -133 c-115 -115 -156 -169 -126 -169 4 0 61 56 127 124
66 68 130 128 142 135 15 8 140 11 414 11 l392 0 61 -54 c34 -29 70 -55 80
-57 47 -10 45 -70 -3 -77 -16 -3 -25 4 -35 30 -8 18 -37 55 -65 83 l-51 49
-393 4 -392 3 -137 -136 c-81 -80 -138 -145 -138 -156 0 -10 2 -19 4 -19 3 0
63 60 135 133 l130 132 333 5 333 6 30 -27 c17 -14 42 -29 56 -33 29 -6 42
-27 33 -50 -14 -36 -61 -28 -71 12 -3 14 -18 36 -32 48 -26 23 -27 23 -346 24
l-321 0 -137 -133 c-123 -120 -148 -152 -132 -169 3 -2 56 46 118 109 63 63
122 114 134 116 13 2 34 13 47 26 45 42 100 11 80 -46 -12 -36 -48 -42 -79
-13 -17 16 -30 20 -47 15 -12 -4 -74 -57 -135 -118 -89 -88 -113 -118 -113
-139 0 -15 4 -29 9 -32 5 -3 63 48 129 114 l119 120 106 0 c101 0 107 1 132
26 30 30 51 28 77 -7 16 -22 18 -30 9 -48 -17 -32 -58 -38 -85 -12 -20 19 -34
21 -127 21 l-104 0 -122 -119 c-125 -119 -134 -134 -115 -184 6 -14 28 3 117
93 60 60 113 110 118 110 4 0 19 12 31 27 21 24 27 26 52 18 32 -12 42 -42 24
-74 -13 -25 -52 -28 -70 -6 -7 8 -20 15 -29 15 -9 0 -65 -49 -125 -109 -89
-89 -107 -112 -101 -130 3 -11 10 -21 14 -21 4 0 45 39 91 88 46 48 93 92 104
99 12 7 48 12 81 13 57 0 63 2 100 40 22 22 48 45 58 51 11 6 142 12 330 15
260 5 317 8 344 22 27 13 34 14 48 2 36 -30 -5 -87 -45 -62 -15 9 -102 12
-340 12 l-320 0 -55 -50 c-55 -50 -56 -50 -123 -50 l-67 0 -102 -101 c-57 -55
-103 -101 -103 -103 0 -1 7 -24 16 -50 l17 -48 78 78 79 78 72 4 c69 4 75 6
113 43 l40 38 232 2 c176 1 238 4 258 15 35 18 50 18 64 0 9 -11 10 -20 1 -35
-11 -22 -44 -28 -55 -11 -4 6 -98 10 -248 10 l-242 0 -43 -40 c-41 -39 -44
-40 -113 -40 l-72 0 -79 -78 -80 -78 16 -37 c8 -20 17 -37 20 -37 2 0 30 27
62 60 31 33 63 60 71 60 7 0 16 7 19 15 16 41 94 35 94 -7 0 -51 -51 -78 -80
-43 -21 25 -39 18 -101 -42 -63 -60 -63 -60 -49 -83 8 -12 17 -8 52 27 l43 42
114 3 c106 2 114 4 128 25 17 25 61 31 81 11 22 -22 14 -67 -13 -80 -22 -10
-30 -8 -55 10 -26 19 -42 22 -135 22 l-105 0 -45 -41 c-25 -23 -45 -47 -45
-55 0 -14 79 -164 87 -164 18 0 35 34 29 62 -11 54 42 89 78 52 31 -30 9 -84
-35 -84 -30 0 -62 -34 -54 -59 13 -42 219 -311 238 -311 4 0 7 40 7 88 0 76
-3 91 -20 107 -25 23 -26 47 -2 68 23 21 46 22 66 1 22 -21 20 -59 -4 -75 -17
-12 -20 -27 -22 -117 l-2 -103 33 -32 33 -32 20 26 c18 24 20 40 19 191 -1 90
3 175 8 189 5 13 64 80 130 149 87 90 120 132 121 150 0 14 3 34 6 45 6 23 65
67 86 64 7 -1 68 -1 136 0 l123 1 -5 223 c-2 122 -5 342 -5 490 l-1 267 -71 0
-71 0 -103 -100 -103 -100 -340 0 -339 0 -116 -115 c-63 -63 -119 -115 -123
-115 -8 0 27 39 157 172 l76 78 208 0 c115 0 267 2 339 5 l131 5 98 98 97 97
82 5 83 5 0 115 c0 120 -4 129 -45 113z m-615 -288 c30 -30 32 -64 4 -99 -27
-35 -90 -37 -113 -4 -56 79 42 171 109 103z"/>
<path d="M12735 11643 c-11 -3 -47 -31 -80 -63 -33 -32 -70 -63 -82 -69 -13
-7 -85 -11 -185 -11 -159 0 -165 1 -198 25 -30 22 -44 25 -119 25 l-86 0 -23
-62 c-44 -118 -50 -108 72 -108 117 0 133 -5 189 -59 l38 -36 150 -3 150 -3
92 89 c107 104 120 112 181 112 42 0 46 2 46 25 0 24 -3 25 -60 25 -78 0 -104
-14 -177 -95 -50 -57 -66 -68 -107 -77 -40 -8 -51 -7 -64 5 -13 13 -13 19 -2
31 14 18 46 21 55 6 16 -26 53 -6 126 66 l77 77 71 5 c78 5 88 22 13 22 -73 0
-112 -16 -164 -67 -48 -47 -50 -48 -126 -53 -84 -7 -125 -29 -136 -76 -8 -28
-53 -34 -63 -8 -10 26 11 49 41 46 14 -2 26 1 26 7 0 25 65 51 125 51 66 0 81
7 152 72 41 37 45 38 118 38 79 0 88 7 66 49 -10 17 -71 25 -116 14z"/>
<path d="M12688 11374 c-46 -47 -95 -92 -110 -100 -33 -17 -281 -20 -324 -4
-15 6 -45 26 -66 45 l-38 35 -115 0 c-105 0 -134 -7 -105 -25 13 -8 13 -51 0
-74 -8 -16 -5 -20 20 -24 16 -4 51 -28 80 -57 28 -28 62 -55 75 -60 24 -9 802
-16 811 -8 2 3 2 42 -2 86 l-7 81 -49 -44 c-28 -25 -60 -46 -72 -47 -11 -1
-37 -3 -56 -5 -90 -10 -95 -9 -98 15 -4 29 22 39 53 18 30 -20 75 -21 118 -2
32 14 107 88 107 106 0 15 -16 12 -31 -7 -23 -27 -75 -43 -141 -43 -43 0 -71
-6 -89 -18 -94 -63 -91 -62 -174 -62 -45 0 -86 -5 -92 -11 -6 -6 -21 -9 -34
-7 -18 2 -24 9 -24 28 0 19 6 26 24 28 13 2 28 -1 34 -7 17 -17 154 -14 193 5
19 9 34 20 34 24 0 19 72 40 135 40 69 0 94 8 133 43 29 27 31 87 4 87 -23 0
-52 -30 -52 -54 0 -24 -29 -32 -47 -13 -21 21 -9 47 21 47 14 0 28 5 31 11 4
5 18 14 31 19 13 5 24 16 24 25 0 12 -13 15 -59 15 l-60 0 -83 -86z"/>
<path d="M11926 11064 c-4 -9 2 -28 11 -42 53 -74 75 -114 100 -177 23 -61 40
-84 127 -172 55 -57 104 -103 108 -103 4 0 3 11 -4 25 -9 19 -7 29 6 51 15 22
23 25 51 20 28 -6 36 -2 59 25 14 17 26 43 26 57 0 37 35 90 66 102 14 6 50
10 81 10 46 0 65 -6 112 -35 56 -35 61 -36 142 -33 78 3 84 4 87 26 3 21 0 22
-62 22 -78 0 -111 11 -154 53 -32 31 -36 32 -135 35 -67 2 -116 -1 -142 -10
-38 -13 -40 -15 -37 -50 3 -30 -1 -40 -22 -53 -47 -31 -100 11 -77 61 9 20 33
32 44 22 1 -2 20 8 42 22 36 22 53 25 158 29 113 3 119 2 157 -23 22 -14 40
-30 40 -35 0 -18 55 -31 123 -30 40 1 63 4 52 6 -30 8 -55 34 -55 58 0 25 40
51 64 42 13 -5 16 1 16 27 0 22 -6 36 -16 40 -9 3 -203 6 -432 6 -399 0 -418
1 -447 20 -37 24 -81 26 -89 4z"/>
<path d="M10207 10989 c-46 -11 -71 -34 -75 -68 -2 -14 -5 -149 -7 -298 -3
-269 -8 -326 -27 -350 -7 -9 -3 -21 11 -39 32 -40 8 -94 -42 -94 -11 0 -36
-13 -57 -30 -37 -29 -41 -30 -144 -30 l-106 0 0 -25 0 -25 147 0 147 0 48 50
48 50 0 79 c0 70 3 83 25 109 15 18 25 42 25 61 0 22 7 35 26 48 24 15 29 15
53 2 52 -29 31 -109 -28 -109 -15 0 -37 -7 -49 -16 -20 -13 -22 -24 -22 -94 0
-78 0 -79 -42 -127 -22 -26 -49 -54 -58 -60 -12 -8 -69 -13 -166 -15 -141 -3
-149 -4 -149 -23 0 -19 7 -20 222 -20 l222 0 65 70 66 70 0 97 c0 83 3 100 19
115 13 12 19 31 19 52 -1 24 6 40 22 53 28 23 41 23 73 -2 l26 -20 0 66 c0 62
-1 65 -18 50 -38 -34 -111 -5 -111 44 0 11 9 29 20 40 21 21 74 27 85 10 10
-17 25 -11 25 10 0 10 -5 30 -11 44 -10 20 -15 23 -30 15 -24 -12 -66 -2 -74
19 -14 34 -23 82 -14 76 5 -3 9 0 9 6 0 6 15 17 33 25 18 8 25 14 15 15 -18 0
-24 15 -10 23 4 2 1 2 -5 1 -7 -2 -13 2 -13 8 0 6 -9 3 -20 -7 -20 -18 -29 -8
-10 11 7 7 6 20 -5 40 -8 16 -15 34 -15 41 0 7 -9 17 -20 23 -25 13 -26 2 -2
-16 10 -8 12 -13 5 -14 -7 0 -13 -8 -13 -18 0 -22 -26 -47 -57 -55 -31 -7 -73
27 -73 59 0 33 17 64 35 64 7 0 17 5 20 10 3 6 5 10 3 9 -2 -1 -20 -5 -41 -10z
m88 -199 c22 -24 23 -70 1 -82 -20 -11 -22 -76 -2 -104 17 -24 14 -73 -5 -85
-20 -13 -73 -11 -87 3 -16 16 -15 69 3 92 20 26 19 49 -4 92 -11 20 -17 43
-14 53 18 51 75 68 108 31z"/>
<path d="M12466 10819 c-15 -12 -26 -30 -26 -45 0 -34 -23 -85 -49 -108 -11
-11 -21 -30 -21 -43 0 -12 -10 -33 -22 -45 l-21 -21 32 6 c17 4 50 24 72 44
22 21 48 41 57 45 10 4 99 7 199 7 172 1 182 2 188 21 12 38 -1 42 -158 38
-125 -2 -154 -6 -173 -20 -31 -25 -61 -22 -80 7 -15 23 -15 27 0 50 20 30 52
32 80 6 19 -17 38 -20 171 -21 187 -2 175 -4 175 20 0 17 -6 19 -70 16 -88 -5
-131 5 -171 38 -26 22 -40 26 -93 26 -49 0 -69 -5 -90 -21z"/>
<path d="M11234 10768 c-5 -7 -2 -8 6 -3 10 6 11 4 6 -11 -5 -10 -11 -27 -13
-36 -3 -10 -9 -18 -13 -18 -4 0 -20 -12 -35 -26 -15 -14 -31 -22 -34 -17 -3 4
-17 9 -30 11 -21 2 -23 -1 -19 -28 3 -23 1 -30 -9 -26 -15 6 -15 0 -3 -29 7
-17 9 -17 9 -3 1 10 12 25 26 34 41 27 95 -4 95 -55 0 -36 -28 -61 -68 -61
-25 0 -36 7 -50 29 l-18 30 -2 -65 c-2 -36 0 -69 3 -74 4 -6 19 -3 38 6 26 14
36 15 64 4 37 -13 44 -9 90 39 27 28 27 31 11 66 -10 23 -8 33 12 69 22 41 22
85 0 71 -5 -3 -7 0 -4 8 3 8 -2 22 -11 31 -9 9 -13 16 -9 16 3 0 1 6 -5 13 -6
8 -8 16 -5 19 2 3 -2 8 -10 11 -9 4 -18 1 -22 -5z"/>
<path d="M12089 10683 c5 -10 47 -55 94 -100 82 -81 86 -83 133 -83 45 0 52 4
102 53 l53 52 191 5 c141 4 192 8 196 18 5 16 -339 17 -370 1 -12 -6 -32 -24
-45 -40 -13 -15 -44 -35 -69 -45 -68 -26 -111 -9 -204 82 -76 74 -99 90 -81
57z"/>
<path d="M12090 10622 c0 -5 7 -15 16 -23 10 -8 14 -24 12 -47 -4 -28 2 -38
34 -68 38 -34 38 -34 139 -34 l100 0 54 51 55 51 172 2 c170 1 173 1 176 23 3
19 -1 21 -25 19 -15 -2 -97 -4 -181 -5 l-153 -1 -54 -51 c-92 -87 -152 -85
-249 8 -73 71 -96 89 -96 75z"/>
<path d="M10720 10600 c0 -5 -6 -10 -14 -10 -15 0 -26 -50 -26 -127 0 -51 1
-53 28 -53 16 0 37 7 48 15 25 19 68 19 84 0 16 -19 70 -19 96 0 25 19 54 19
81 0 28 -20 37 -5 27 43 -4 20 -6 44 -5 52 1 10 -1 11 -6 4 -33 -46 -98 -33
-117 24 l-12 33 -24 -25 c-14 -14 -34 -34 -44 -45 -26 -28 -52 -26 -81 4 -24
23 -29 40 -26 78 1 9 0 17 -3 17 -3 0 -6 -4 -6 -10z"/>
<path d="M12458 10484 l-61 -54 -107 0 c-103 0 -108 1 -149 30 -47 35 -47 35
-55 -62 -4 -37 -13 -86 -21 -109 -28 -78 -27 -79 78 -79 l92 0 122 -125 c74
-77 136 -131 158 -141 48 -20 61 -8 44 39 -9 26 -20 37 -41 41 -36 7 -52 43
-32 71 19 26 21 33 28 76 5 26 21 51 52 83 48 48 80 59 147 53 21 -2 41 1 46
7 19 25 49 123 44 147 -3 16 1 32 11 42 35 34 20 38 -140 36 l-156 -2 -60 -53z"/>
<path d="M10478 10338 c-10 -10 -29 -18 -43 -18 -37 0 -65 -33 -65 -77 0 -37
0 -37 16 -15 22 32 76 30 99 -4 16 -25 16 -28 -2 -53 -23 -31 -64 -39 -86 -17
-23 23 -27 20 -27 -20 0 -29 -10 -45 -52 -92 -105 -112 -72 -101 -330 -102
l-228 0 0 -30 0 -30 257 0 258 0 117 119 118 119 -1 84 c0 46 -3 99 -7 118 -7
34 -8 35 -24 18z"/>
<path d="M12579 10241 c-40 -39 -49 -55 -49 -84 0 -22 6 -37 15 -41 9 -3 22
-20 30 -38 16 -39 22 -28 28 56 3 51 8 63 35 87 18 16 44 31 59 35 47 10 54
14 48 24 -3 5 -31 10 -62 10 -53 0 -58 -2 -104 -49z"/>
<path d="M9766 10232 c-3 -3 -6 -32 -6 -64 l0 -58 108 0 c100 0 110 2 130 23
14 15 22 36 22 60 l0 37 -87 1 c-49 1 -105 2 -125 4 -20 2 -39 1 -42 -3z"/>
<path d="M10540 10173 l0 -66 -116 -117 -115 -117 20 -39 c12 -21 21 -46 21
-56 0 -10 9 -18 23 -20 16 -2 23 -11 25 -30 3 -26 -7 -34 -40 -29 -10 1 -17
-29 -15 -69 2 -28 7 -35 27 -40 19 -4 26 -13 28 -39 2 -19 8 -31 15 -28 8 2
14 52 17 159 l5 155 128 133 127 132 0 59 c0 34 -4 59 -10 59 -6 0 -10 -6 -8
-12 4 -26 -14 -58 -38 -64 -39 -10 -74 19 -74 61 0 19 -4 35 -10 35 -6 0 -10
-29 -10 -67z"/>
<path d="M10907 10222 c-5 -7 -11 -59 -13 -115 -3 -56 -6 -130 -8 -164 -3 -55
-1 -63 14 -63 9 0 29 11 44 25 25 23 26 29 26 126 0 95 -1 102 -24 120 -15 12
-26 32 -28 52 -2 22 -6 28 -11 19z"/>
<path d="M9472 10105 l-112 -114 0 -180 c0 -130 -3 -183 -12 -193 -7 -7 -19
-21 -27 -31 -22 -28 7 -21 34 9 24 26 25 31 25 187 l0 159 76 78 c56 58 85 80
110 84 34 7 34 7 34 61 0 30 -4 55 -8 55 -5 0 -59 -52 -120 -115z"/>
<path d="M10720 10153 l0 -67 -135 -135 -135 -135 0 -144 c0 -141 0 -144 23
-150 28 -7 31 -4 31 33 1 25 6 31 31 35 17 3 30 11 29 18 -1 6 -2 30 -2 53 -2
33 -5 39 -19 35 -26 -8 -45 8 -41 35 2 18 10 25 31 27 22 3 27 8 27 31 0 37
32 77 74 91 19 6 60 39 95 75 60 62 61 64 61 120 0 49 -4 60 -25 77 -14 11
-25 30 -25 44 0 13 -4 24 -10 24 -6 0 -10 -29 -10 -67z"/>
<path d="M12015 10145 c-15 -24 -24 -49 -20 -55 3 -6 45 -10 96 -10 108 0 123
-6 209 -95 83 -86 157 -145 180 -145 10 0 28 16 41 36 23 37 17 53 -20 54 -7
0 -73 59 -146 130 l-132 130 -91 0 -91 0 -26 -45z"/>
<path d="M10838 10154 c-13 -16 -18 -41 -18 -84 0 -61 -1 -62 -55 -119 -30
-32 -55 -61 -55 -64 0 -16 108 -7 129 11 21 16 22 24 19 148 -3 128 -4 131
-20 108z"/>
<path d="M9472 10009 l-72 -70 0 -153 0 -153 -31 -43 c-27 -37 -29 -44 -17
-57 20 -19 36 -10 86 48 l42 50 0 140 0 141 60 62 c68 71 78 106 32 106 -21 0
-45 -17 -100 -71z"/>
<path d="M11935 10014 c-21 -25 -47 -55 -59 -66 -42 -40 -162 -125 -191 -135
-31 -10 -31 -11 -18 -75 4 -20 0 -30 -16 -40 -19 -12 -21 -22 -21 -118 0 -117
4 -127 72 -192 l40 -38 121 0 c91 1 127 4 141 15 18 14 8 15 -93 15 -65 0
-121 5 -134 12 -29 15 -67 56 -67 72 0 7 -9 23 -20 36 -25 29 -25 52 -2 73 23
21 41 21 70 1 l22 -15 0 63 c0 52 -3 65 -20 76 -38 23 -16 92 30 92 46 0 68
-69 30 -92 -17 -11 -20 -24 -20 -93 0 -140 41 -175 203 -175 l93 0 51 43 c29
23 52 45 52 50 1 4 -57 7 -127 7 -116 0 -131 -2 -147 -20 -22 -24 -58 -26 -80
-4 -18 18 -12 52 13 72 23 17 39 15 64 -10 21 -21 33 -23 160 -25 134 -3 137
-2 167 23 17 14 31 30 31 35 0 4 -33 7 -72 6 -93 -4 -127 6 -178 48 -23 19
-50 35 -59 35 -42 0 -55 54 -21 85 16 15 26 17 48 9 24 -9 27 -15 27 -56 0
-55 22 -83 74 -98 47 -13 187 -13 211 0 25 13 160 169 160 184 0 6 -17 21 -38
34 -20 13 -73 57 -117 99 -115 110 -121 113 -241 113 l-102 0 -37 -46z"/>
<path d="M9540 9945 l-45 -46 -5 -144 -5 -144 -49 -51 -49 -51 22 -22 21 -22
65 68 65 68 0 105 c0 92 3 109 23 138 18 27 21 44 19 90 -2 31 -7 56 -11 56
-4 0 -27 -20 -51 -45z"/>
<path d="M9586 9813 c-3 -4 -6 -54 -6 -111 l0 -105 -65 -65 c-36 -36 -65 -69
-65 -72 0 -10 35 -40 47 -40 5 0 38 30 73 66 l63 65 -6 119 c-4 86 -9 124 -20
134 -8 8 -17 12 -21 9z"/>
<path d="M11512 9753 c-13 -3 -27 -15 -32 -28 -5 -13 -14 -26 -19 -30 -7 -4
-11 -51 -11 -123 l0 -117 98 -98 98 -97 87 -3 c82 -3 147 10 147 30 0 4 -51 7
-112 6 -124 -2 -138 3 -195 63 -46 49 -63 76 -63 100 0 12 -8 36 -17 53 -14
23 -15 35 -7 48 19 30 40 38 68 25 36 -16 36 -65 1 -88 -41 -27 -33 -59 33
-126 l59 -58 134 0 c74 0 141 5 149 10 10 7 -18 10 -89 10 l-104 0 -64 63 -63
64 0 116 c0 96 -3 117 -15 117 -8 0 -18 14 -23 32 -8 34 -19 39 -60 31z"/>
<path d="M9678 9733 c-26 -4 -26 -5 -30 -98 l-3 -94 -69 -70 c-67 -68 -68 -69
-46 -81 13 -7 47 -12 77 -11 32 0 53 -3 53 -10 0 -6 -14 -9 -35 -6 -19 3 -37
1 -40 -3 -3 -5 29 -30 71 -56 l75 -47 38 37 37 36 340 0 c344 0 364 2 364 36
0 8 -8 11 -22 7 -46 -12 -800 -15 -811 -4 -8 8 62 11 255 11 147 0 273 3 282
6 8 3 12 12 9 20 -3 8 -10 11 -15 8 -6 -4 -7 2 -3 16 5 14 3 20 -3 16 -6 -4
-9 7 -7 29 2 19 0 35 -5 35 -16 0 -19 46 -6 90 13 43 7 90 -14 113 -15 17 -56
16 -91 -2 -36 -19 -37 -19 -68 0 -40 24 -67 24 -112 0 -35 -19 -63 -15 -80 11
-6 10 -99 17 -141 11z"/>
<path d="M10796 9668 c-3 -29 -6 -81 -6 -115 l0 -62 -116 -115 -117 -116 -329
0 c-294 0 -333 -2 -359 -17 -16 -10 -29 -23 -29 -30 0 -19 262 -133 305 -133
19 0 19 5 1 33 -28 44 18 92 64 67 37 -20 23 -75 -25 -94 -20 -8 -19 -8 2 -19
19 -8 27 -6 47 14 13 14 24 36 24 51 -1 52 37 73 77 44 16 -11 22 -11 45 2 32
19 56 11 72 -23 16 -36 -14 -69 -56 -61 -23 5 -36 1 -58 -21 -15 -15 -28 -30
-28 -34 0 -9 155 -37 253 -45 l77 -7 0 44 c0 32 -6 49 -20 62 -24 20 -26 50
-4 71 21 21 47 20 68 -3 20 -21 15 -50 -11 -77 -9 -9 -17 -34 -17 -57 l-1 -42
95 -3 c91 -3 95 -2 105 20 14 33 43 35 54 5 9 -23 14 -25 53 -21 79 9 108 15
108 22 0 5 -16 24 -36 43 -54 50 -64 83 -64 203 0 100 -1 105 -22 112 -13 4
-28 7 -34 6 -7 -1 -23 11 -37 27 -25 30 -25 30 -46 10 -17 -16 -21 -31 -21
-83 0 -55 4 -67 26 -89 14 -14 31 -24 37 -22 21 8 39 -11 35 -36 -4 -30 -36
-32 -52 -4 -6 11 -23 35 -38 53 -25 29 -28 41 -28 100 0 55 4 72 21 91 40 42
44 63 41 184 -3 115 -4 117 -26 117 -20 0 -24 -6 -30 -52z"/>
<path d="M11385 9641 c1 -28 8 -57 15 -65 12 -15 10 -44 -5 -94 -6 -19 9 -40
111 -143 66 -66 130 -126 144 -133 30 -16 72 -11 114 12 l31 17 -75 5 c-41 3
-84 10 -95 17 -11 6 -59 52 -107 101 -83 84 -88 92 -89 133 -4 206 -3 194 -25
197 -19 3 -21 -2 -19 -47z"/>
<path d="M11370 9409 c0 -5 -4 -7 -10 -4 -6 4 -7 -2 -2 -14 4 -12 56 -70 115
-131 112 -115 127 -123 177 -95 l25 13 -25 11 c-14 5 -76 60 -139 120 -106
103 -141 128 -141 100z"/>
<path d="M10564 9365 c-10 -5 -32 -20 -48 -33 -28 -23 -29 -23 -368 -22 l-340
1 -30 -28 -29 -28 22 -17 c29 -24 51 -22 79 7 l23 24 338 3 338 3 35 40 c19
22 35 45 36 52 0 14 -29 13 -56 -2z"/>
<path d="M11004 9367 c-11 -6 -14 -33 -14 -118 0 -124 6 -143 68 -203 41 -39
41 -39 102 -32 106 12 108 15 55 68 -40 41 -45 51 -45 92 0 35 -4 48 -20 56
-35 19 -18 90 21 90 56 0 79 -53 39 -87 -14 -13 -20 -30 -20 -61 0 -38 5 -49
45 -89 34 -34 51 -44 68 -40 64 15 173 50 182 58 12 12 -216 243 -260 264 -32
15 -194 17 -221 2z"/>
<path d="M11278 9374 c6 -3 10 -10 6 -15 -3 -5 48 -63 114 -130 112 -113 120
-119 145 -110 15 6 27 13 27 17 0 4 -17 22 -37 41 -21 19 -74 70 -118 113 -60
58 -89 80 -115 84 -19 3 -29 3 -22 0z"/>
<path d="M14050 6095 c0 -16 -2 -17 -10 -5 -5 8 -11 12 -13 10 -11 -13 -129
-291 -125 -295 6 -6 100 19 171 45 41 16 57 27 57 40 0 25 -46 168 -65 200
-13 22 -14 23 -15 5z"/>
<path d="M6214 6179 c-70 -9 -131 -32 -150 -57 -16 -20 -18 -100 -4 -137 12
-32 22 -31 178 21 184 60 354 154 320 175 -15 11 -257 9 -344 -2z"/>
<path d="M8275 6135 c-33 -8 -66 -14 -73 -14 -7 -1 -10 -6 -6 -13 4 -7 3 -8
-4 -4 -15 9 -60 -15 -94 -48 -20 -21 -30 -46 -43 -117 -17 -96 -14 -125 14
-134 30 -9 228 13 321 36 153 38 245 99 256 170 7 39 -28 94 -53 85 -8 -3 -12
-2 -9 3 12 19 -110 51 -194 50 -30 0 -82 -7 -115 -14z"/>
<path d="M10252 6101 c-128 -44 -222 -174 -222 -307 0 -98 34 -195 86 -248 92
-91 305 -112 442 -42 131 66 209 223 182 365 -18 97 -58 148 -153 195 -118 58
-236 71 -335 37z"/>
</g>
</svg>
