<svg width="169" height="57" viewBox="0 0 169 57" fill="none" xmlns="http://www.w3.org/2000/svg">
<g clip-path="url(#clip0)">
<path d="M154.757 0.242125H13.9169C13.4035 0.242125 12.8963 0.242125 12.3843 0.244925C11.9557 0.247725 11.5305 0.255859 11.0978 0.262705C10.1577 0.273768 9.21981 0.356472 8.2923 0.510099C7.36609 0.667071 6.4689 0.963007 5.63107 1.3879C4.79426 1.81639 4.02964 2.37316 3.36496 3.03802C2.69678 3.70102 2.13981 4.46735 1.71545 5.30755C1.28992 6.14608 0.994856 7.04464 0.840449 7.9722C0.684575 8.89859 0.600697 9.83566 0.589569 10.775C0.576577 11.2042 0.575205 11.6349 0.568359 12.0642V44.4242C0.575205 44.8589 0.576577 45.28 0.589569 45.7148C0.600701 46.6541 0.684578 47.5911 0.840449 48.5175C0.99443 49.4456 1.28951 50.3447 1.71545 51.1835C2.13962 52.021 2.69667 52.7842 3.36496 53.4435C4.02712 54.1113 4.79223 54.6685 5.63107 55.0937C6.46889 55.5197 7.36599 55.8174 8.2923 55.9768C9.21997 56.1292 10.1577 56.212 11.0978 56.2243C11.5305 56.2339 11.9557 56.2393 12.3843 56.2393C12.8963 56.2421 13.4036 56.2421 13.9169 56.2421H154.757C155.26 56.2421 155.771 56.2421 156.275 56.2393C156.701 56.2393 157.139 56.2339 157.565 56.2243C158.504 56.2126 159.44 56.1299 160.365 55.9768C161.295 55.8163 162.195 55.5187 163.037 55.0937C163.875 54.6683 164.639 54.1111 165.301 53.4435C165.967 52.7816 166.526 52.019 166.955 51.1835C167.378 50.3441 167.67 49.445 167.822 48.5175C167.978 47.591 168.065 46.6542 168.082 45.7148C168.087 45.28 168.087 44.8589 168.087 44.4242C168.098 43.9155 168.098 43.4097 168.098 42.8928V13.5927C168.098 13.08 168.098 12.5714 168.087 12.0642C168.087 11.6349 168.087 11.2042 168.082 10.7749C168.065 9.83552 167.978 8.89866 167.822 7.97214C167.67 7.04512 167.377 6.14663 166.955 5.30749C166.091 3.6234 164.721 2.25256 163.037 1.38777C162.195 0.96392 161.294 0.668062 160.365 0.509973C159.44 0.355669 158.504 0.272936 157.565 0.262509C157.139 0.255677 156.701 0.247473 156.275 0.244743C155.771 0.241943 155.26 0.241943 154.757 0.241943V0.242125Z" fill="#A6A6A6"/>
<path d="M12.3916 55.0171C11.965 55.0171 11.5488 55.0116 11.1256 55.0021C10.2489 54.9907 9.3742 54.9144 8.50876 54.7738C7.70179 54.6348 6.92005 54.3763 6.18933 54.0067C5.4653 53.6402 4.80494 53.1597 4.23353 52.5835C3.65384 52.0141 3.17123 51.3536 2.80481 50.6284C2.43436 49.8984 2.17798 49.116 2.04461 48.3083C1.90059 47.4405 1.82266 46.5629 1.81151 45.6833C1.80264 45.388 1.79102 44.405 1.79102 44.405V12.0642C1.79102 12.0642 1.80339 11.0962 1.81158 10.8118C1.82226 9.93358 1.89973 9.05742 2.04332 8.19092C2.17694 7.38105 2.43351 6.59635 2.80417 5.86398C3.16924 5.13922 3.64917 4.47831 4.22536 3.90685C4.80091 3.32997 5.46339 2.84695 6.18864 2.4754C6.91768 2.10703 7.69795 1.85033 8.50329 1.71388C9.37156 1.57187 10.2493 1.4951 11.129 1.4842L12.3922 1.4671H156.268L157.547 1.48488C158.418 1.49524 159.288 1.57133 160.148 1.71251C160.962 1.85067 161.75 2.10916 162.488 2.4795C163.941 3.22828 165.123 4.41293 165.869 5.8674C166.233 6.59471 166.486 7.37301 166.618 8.17589C166.763 9.04949 166.844 9.93254 166.861 10.818C166.865 11.2145 166.865 11.6403 166.865 12.0642C166.876 12.5892 166.876 13.0889 166.876 13.5927V42.8928C166.876 43.4014 166.876 43.8977 166.865 44.3981C166.865 44.8534 166.865 45.2704 166.86 45.6997C166.843 46.5693 166.763 47.4366 166.621 48.2946C166.49 49.1081 166.235 49.8966 165.865 50.6326C165.496 51.35 165.016 52.0047 164.443 52.5726C163.871 53.1519 163.209 53.6352 162.484 54.0041C161.748 54.3765 160.961 54.6359 160.148 54.7738C159.283 54.9151 158.408 54.9915 157.531 55.0021C157.121 55.0116 156.692 55.0171 156.275 55.0171L154.757 55.0199L12.3916 55.0171Z" fill="black"/>
<path d="M35.2446 28.663C35.2596 27.4945 35.57 26.3487 36.1468 25.3324C36.7237 24.3161 37.5482 23.4622 38.5437 22.8501C37.9113 21.9469 37.077 21.2036 36.107 20.6792C35.1371 20.1548 34.0582 19.8638 32.9561 19.8294C30.6052 19.5826 28.3261 21.2361 27.1281 21.2361C25.9069 21.2361 24.0624 19.8539 22.0762 19.8947C20.7914 19.9362 19.5393 20.3098 18.4419 20.9791C17.3445 21.6484 16.4391 22.5905 15.8141 23.7137C13.1065 28.4015 15.1261 35.291 17.7197 39.0803C19.0174 40.9358 20.534 43.0084 22.5184 42.9349C24.4603 42.8543 25.1856 41.6966 27.5296 41.6966C29.8519 41.6966 30.5323 42.9349 32.557 42.8882C34.6407 42.8543 35.9536 41.0244 37.2057 39.1514C38.1381 37.8293 38.8555 36.368 39.3315 34.8218C38.1209 34.3098 37.0878 33.4528 36.361 32.3576C35.6343 31.2623 35.246 29.9774 35.2446 28.663Z" fill="white"/>
<path d="M31.4202 17.3373C32.5563 15.9734 33.116 14.2204 32.9805 12.4504C31.2447 12.6327 29.6414 13.4623 28.4899 14.7739C27.9269 15.4146 27.4957 16.16 27.221 16.9675C26.9462 17.775 26.8333 18.6287 26.8887 19.4798C27.7569 19.4888 28.6158 19.3006 29.4007 18.9295C30.1857 18.5584 30.8761 18.014 31.4202 17.3373Z" fill="white"/>
<path d="M59.7906 38.2376H53.1639L51.5725 42.9366H48.7656L55.0424 25.5514H57.9586L64.2353 42.9366H61.3806L59.7906 38.2376ZM53.8502 36.0692H59.103L56.5135 28.443H56.4411L53.8502 36.0692Z" fill="white"/>
<path d="M77.7903 36.5997C77.7903 40.5386 75.6821 43.0692 72.5006 43.0692C71.6947 43.1114 70.8932 42.9257 70.1879 42.5336C69.4826 42.1414 68.902 41.5585 68.5125 40.8516H68.4523V47.1298H65.8506V30.2614H68.369V32.3696H68.4168C68.8242 31.6662 69.4146 31.0863 70.1253 30.6917C70.836 30.2971 71.6403 30.1026 72.4528 30.1288C75.6697 30.1288 77.7903 32.6718 77.7903 36.5997ZM75.1161 36.5997C75.1161 34.0335 73.7899 32.3464 71.7664 32.3464C69.7785 32.3464 68.4414 34.069 68.4414 36.5997C68.4414 39.1536 69.7785 40.864 71.7664 40.864C73.7899 40.864 75.1161 39.1892 75.1161 36.5997Z" fill="white"/>
<path d="M91.7414 36.5997C91.7414 40.5386 89.6332 43.0692 86.4518 43.0692C85.6459 43.1114 84.8444 42.9257 84.1391 42.5335C83.4338 42.1414 82.8532 41.5585 82.4637 40.8516H82.4035V47.1298H79.8018V30.2614H82.3201V32.3696H82.368C82.7753 31.6662 83.3657 31.0863 84.0764 30.6917C84.7871 30.2971 85.5915 30.1026 86.4039 30.1288C89.6209 30.1288 91.7414 32.6718 91.7414 36.5997ZM89.0672 36.5997C89.0672 34.0335 87.741 32.3464 85.7176 32.3464C83.7297 32.3464 82.3926 34.069 82.3926 36.5997C82.3926 39.1536 83.7297 40.864 85.7176 40.864C87.7411 40.864 89.0672 39.1892 89.0672 36.5997H89.0672Z" fill="white"/>
<path d="M100.962 38.0927C101.155 39.8167 102.83 40.9487 105.118 40.9487C107.311 40.9487 108.889 39.8166 108.889 38.2621C108.889 36.9127 107.938 36.1047 105.684 35.551L103.431 35.0082C100.239 34.2371 98.7569 32.7442 98.7569 30.3215C98.7569 27.3219 101.371 25.2615 105.083 25.2615C108.756 25.2615 111.275 27.3219 111.36 30.3215H108.733C108.576 28.5865 107.142 27.5393 105.046 27.5393C102.95 27.5393 101.516 28.5989 101.516 30.141C101.516 31.3701 102.432 32.0934 104.673 32.647L106.588 33.1174C110.155 33.9609 111.637 35.3938 111.637 37.9367C111.637 41.1892 109.046 43.2263 104.926 43.2263C101.07 43.2263 98.467 41.2371 98.2988 38.0925L100.962 38.0927Z" fill="white"/>
<path d="M117.253 27.2618V30.2614H119.663V32.3217H117.253V39.3094C117.253 40.395 117.736 40.9008 118.795 40.9008C119.081 40.8959 119.367 40.8758 119.651 40.8406V42.8887C119.175 42.9777 118.69 43.018 118.206 43.009C115.64 43.009 114.639 42.0451 114.639 39.5869V32.3217H112.796V30.2614H114.639V27.2618H117.253Z" fill="white"/>
<path d="M121.059 36.5997C121.059 32.6116 123.407 30.1056 127.07 30.1056C130.745 30.1056 133.083 32.6116 133.083 36.5997C133.083 40.5988 130.757 43.0939 127.07 43.0939C123.384 43.0939 121.059 40.5987 121.059 36.5997ZM130.432 36.5997C130.432 33.864 129.178 32.2493 127.07 32.2493C124.962 32.2493 123.71 33.8763 123.71 36.5997C123.71 39.3464 124.962 40.9488 127.07 40.9488C129.178 40.9488 130.432 39.3464 130.432 36.5997H130.432Z" fill="white"/>
<path d="M135.228 30.2614H137.709V32.4188H137.769C137.937 31.745 138.332 31.1496 138.887 30.7325C139.442 30.3155 140.124 30.1023 140.818 30.1288C141.118 30.1277 141.417 30.1603 141.709 30.2259V32.6595C141.331 32.5438 140.936 32.4907 140.54 32.5022C140.162 32.4869 139.786 32.5535 139.436 32.6976C139.086 32.8416 138.772 33.0597 138.514 33.3367C138.256 33.6137 138.062 33.9433 137.944 34.3026C137.826 34.6619 137.786 35.0426 137.829 35.4184V42.9366H135.228L135.228 30.2614Z" fill="white"/>
<path d="M153.706 39.2137C153.356 41.5147 151.115 43.0938 148.248 43.0938C144.561 43.0938 142.272 40.6233 142.272 36.6598C142.272 32.684 144.573 30.1055 148.139 30.1055C151.646 30.1055 153.851 32.5145 153.851 36.3577V37.2491H144.899V37.4063C144.858 37.8728 144.916 38.3427 145.07 38.7849C145.224 39.2271 145.471 39.6314 145.793 39.9709C146.116 40.3105 146.507 40.5776 146.941 40.7544C147.374 40.9312 147.841 41.0138 148.309 40.9965C148.923 41.0541 149.54 40.9118 150.068 40.5905C150.595 40.2693 151.005 39.7864 151.236 39.2137L153.706 39.2137ZM144.911 35.4307H151.248C151.271 35.0113 151.208 34.5916 151.061 34.1979C150.915 33.8042 150.688 33.445 150.396 33.1429C150.105 32.8409 149.753 32.6024 149.365 32.4425C148.976 32.2826 148.559 32.2047 148.139 32.2137C147.715 32.2112 147.295 32.2926 146.903 32.4532C146.511 32.6139 146.155 32.8506 145.855 33.1497C145.555 33.4488 145.317 33.8043 145.155 34.1958C144.993 34.5873 144.91 35.007 144.911 35.4307V35.4307Z" fill="white"/>
<path d="M53.5252 12.4655C54.0706 12.4263 54.618 12.5087 55.1278 12.7067C55.6375 12.9047 56.097 13.2134 56.473 13.6105C56.849 14.0076 57.1322 14.4831 57.3022 15.0029C57.4721 15.5227 57.5246 16.0737 57.4559 16.6162C57.4559 19.285 56.0135 20.819 53.5252 20.819H50.5078V12.4655H53.5252ZM51.8053 19.6377H53.3803C53.77 19.661 54.1601 19.5971 54.522 19.4506C54.884 19.3041 55.2087 19.0788 55.4726 18.791C55.7365 18.5032 55.9329 18.1602 56.0475 17.787C56.1621 17.4137 56.1921 17.0196 56.1351 16.6333C56.1879 16.2485 56.155 15.8568 56.0386 15.4863C55.9222 15.1158 55.7253 14.7756 55.4621 14.4901C55.1988 14.2046 54.8756 13.9808 54.5157 13.8349C54.1558 13.689 53.768 13.6244 53.3803 13.646H51.8053V19.6377Z" fill="white"/>
<path d="M58.9213 17.6642C58.8817 17.2499 58.9291 16.8319 59.0604 16.437C59.1918 16.0421 59.4043 15.679 59.6842 15.3711C59.9641 15.0631 60.3053 14.817 60.6859 14.6486C61.0665 14.4802 61.4781 14.3932 61.8942 14.3932C62.3104 14.3932 62.722 14.4802 63.1026 14.6486C63.4832 14.817 63.8244 15.0631 64.1043 15.3711C64.3842 15.679 64.5967 16.0421 64.7281 16.437C64.8594 16.8319 64.9068 17.2499 64.8672 17.6642C64.9076 18.0789 64.8607 18.4975 64.7297 18.893C64.5987 19.2885 64.3864 19.6523 64.1064 19.9609C63.8264 20.2694 63.4849 20.516 63.1039 20.6848C62.723 20.8535 62.3109 20.9407 61.8942 20.9407C61.4776 20.9407 61.0655 20.8535 60.6845 20.6848C60.3036 20.516 59.9621 20.2694 59.6821 19.9609C59.4021 19.6523 59.1898 19.2885 59.0588 18.893C58.9277 18.4975 58.8809 18.0789 58.9213 17.6642ZM63.5875 17.6642C63.5875 16.2977 62.9736 15.4986 61.8963 15.4986C60.8148 15.4986 60.2065 16.2977 60.2065 17.6642C60.2065 19.0416 60.8149 19.8346 61.8963 19.8346C62.9736 19.8346 63.5875 19.0362 63.5875 17.6642H63.5875Z" fill="white"/>
<path d="M72.7711 20.8189H71.4805L70.1775 16.176H70.0791L68.7816 20.8189H67.5033L65.7656 14.5148H67.0275L68.1568 19.3252H68.2498L69.5459 14.5148H70.7395L72.0356 19.3252H72.134L73.2578 14.5148H74.5019L72.7711 20.8189Z" fill="white"/>
<path d="M75.9629 14.5149H77.1605V15.5163H77.2535C77.4112 15.1566 77.6772 14.8551 78.0145 14.6538C78.3517 14.4525 78.7433 14.3613 79.1348 14.3932C79.4415 14.3701 79.7495 14.4164 80.0359 14.5285C80.3224 14.6406 80.5799 14.8158 80.7895 15.041C80.999 15.2661 81.1552 15.5356 81.2465 15.8293C81.3378 16.1231 81.3618 16.4336 81.3168 16.7379V20.8189H80.0727V17.0503C80.0727 16.0372 79.6324 15.5334 78.7123 15.5334C78.5041 15.5237 78.2962 15.5592 78.1029 15.6373C77.9096 15.7155 77.7355 15.8345 77.5925 15.9863C77.4496 16.138 77.3411 16.3188 77.2745 16.5164C77.208 16.714 77.185 16.9237 77.207 17.131V20.819H75.9629L75.9629 14.5149Z" fill="white"/>
<path d="M83.2998 12.0539H84.544V20.8189H83.2998V12.0539Z" fill="white"/>
<path d="M86.2738 17.6642C86.2342 17.2499 86.2816 16.8318 86.413 16.4369C86.5444 16.042 86.7569 15.6789 87.0369 15.3709C87.3168 15.063 87.658 14.8169 88.0387 14.6485C88.4193 14.4801 88.8309 14.3931 89.2471 14.3931C89.6633 14.3931 90.0749 14.4801 90.4555 14.6485C90.8361 14.8169 91.1774 15.063 91.4573 15.3709C91.7373 15.6789 91.9497 16.042 92.0811 16.4369C92.2126 16.8318 92.26 17.2499 92.2204 17.6642C92.2607 18.0789 92.2138 18.4975 92.0828 18.893C91.9517 19.2885 91.7393 19.6523 91.4593 19.9609C91.1793 20.2694 90.8378 20.516 90.4568 20.6847C90.0758 20.8535 89.6638 20.9407 89.2471 20.9407C88.8304 20.9407 88.4183 20.8535 88.0373 20.6847C87.6563 20.516 87.3149 20.2694 87.0349 19.9609C86.7548 19.6523 86.5425 19.2885 86.4114 18.893C86.2803 18.4975 86.2335 18.0789 86.2738 17.6642ZM90.94 17.6642C90.94 16.2977 90.3261 15.4986 89.2488 15.4986C88.1674 15.4986 87.559 16.2977 87.559 17.6642C87.559 19.0416 88.1674 19.8346 89.2488 19.8346C90.3261 19.8346 90.94 19.0361 90.94 17.6642H90.94Z" fill="white"/>
<path d="M93.5303 19.0362C93.5303 17.9014 94.3752 17.2472 95.875 17.1542L97.5826 17.0558V16.5116C97.5826 15.8458 97.1424 15.4698 96.292 15.4698C95.5975 15.4698 95.1162 15.7248 94.9781 16.1705H93.7736C93.9008 15.0877 94.9193 14.3932 96.3494 14.3932C97.9299 14.3932 98.8213 15.18 98.8213 16.5116V20.819H97.6236V19.933H97.5252C97.3254 20.2508 97.0448 20.5099 96.7122 20.6838C96.3795 20.8577 96.0066 20.9402 95.6316 20.9228C95.367 20.9504 95.0995 20.9221 94.8464 20.8399C94.5934 20.7578 94.3603 20.6235 94.1624 20.4457C93.9644 20.268 93.8058 20.0507 93.697 19.8079C93.5881 19.5651 93.5313 19.3022 93.5303 19.0362ZM97.5826 18.4975V17.9704L96.0432 18.0689C95.175 18.127 94.7812 18.4223 94.7812 18.978C94.7812 19.5454 95.2734 19.8756 95.9502 19.8756C96.1485 19.8957 96.3489 19.8756 96.5393 19.8167C96.7297 19.7578 96.9063 19.6612 97.0586 19.5326C97.2109 19.404 97.3358 19.2461 97.4258 19.0683C97.5158 18.8905 97.5692 18.6963 97.5826 18.4975Z" fill="white"/>
<path d="M100.456 17.6642C100.456 15.6722 101.48 14.4103 103.073 14.4103C103.467 14.3921 103.858 14.4865 104.2 14.6823C104.543 14.8782 104.822 15.1674 105.006 15.5163H105.099V12.0539H106.343V20.8189H105.151V19.8229H105.053C104.854 20.1694 104.565 20.4551 104.216 20.6489C103.867 20.8428 103.472 20.9375 103.073 20.9228C101.469 20.9229 100.456 19.6609 100.456 17.6642ZM101.741 17.6642C101.741 19.0013 102.372 19.8059 103.426 19.8059C104.474 19.8059 105.122 18.9897 105.122 17.6696C105.122 16.3558 104.467 15.5279 103.426 15.5279C102.378 15.5279 101.741 16.338 101.741 17.6642H101.741Z" fill="white"/>
<path d="M111.491 17.6642C111.451 17.2499 111.498 16.8319 111.63 16.437C111.761 16.0421 111.974 15.679 112.254 15.3711C112.533 15.0631 112.875 14.817 113.255 14.6486C113.636 14.4802 114.047 14.3932 114.464 14.3932C114.88 14.3932 115.291 14.4802 115.672 14.6486C116.053 14.817 116.394 15.0631 116.674 15.3711C116.954 15.679 117.166 16.0421 117.297 16.437C117.429 16.8319 117.476 17.2499 117.437 17.6642C117.477 18.0789 117.43 18.4975 117.299 18.893C117.168 19.2885 116.956 19.6523 116.676 19.9609C116.396 20.2694 116.054 20.516 115.673 20.6848C115.292 20.8535 114.88 20.9407 114.464 20.9407C114.047 20.9407 113.635 20.8535 113.254 20.6848C112.873 20.516 112.531 20.2694 112.251 19.9609C111.971 19.6523 111.759 19.2885 111.628 18.893C111.497 18.4975 111.45 18.0789 111.491 17.6642ZM116.157 17.6642C116.157 16.2977 115.543 15.4986 114.466 15.4986C113.384 15.4986 112.776 16.2977 112.776 17.6642C112.776 19.0416 113.384 19.8346 114.466 19.8346C115.543 19.8346 116.157 19.0362 116.157 17.6642Z" fill="white"/>
<path d="M119.105 14.5149H120.303V15.5163H120.396C120.554 15.1566 120.82 14.8551 121.157 14.6538C121.494 14.4525 121.886 14.3613 122.277 14.3932C122.584 14.3701 122.892 14.4164 123.179 14.5285C123.465 14.6406 123.723 14.8158 123.932 15.041C124.142 15.2661 124.298 15.5356 124.389 15.8293C124.48 16.1231 124.504 16.4336 124.459 16.7379V20.8189H123.215V17.0503C123.215 16.0372 122.775 15.5334 121.855 15.5334C121.647 15.5237 121.439 15.5592 121.245 15.6373C121.052 15.7155 120.878 15.8345 120.735 15.9863C120.592 16.138 120.484 16.3188 120.417 16.5164C120.351 16.714 120.328 16.9237 120.35 17.131V20.819H119.105V14.5149Z" fill="white"/>
<path d="M131.49 12.9453V14.5436H132.856V15.5915H131.49V18.8331C131.49 19.4935 131.763 19.7826 132.382 19.7826C132.54 19.7821 132.699 19.7725 132.856 19.7539V20.7902C132.633 20.8302 132.406 20.8515 132.179 20.8538C130.796 20.8538 130.245 20.3671 130.245 19.1517V15.5915H129.244V14.5435H130.245V12.9453H131.49Z" fill="white"/>
<path d="M134.555 12.0539H135.788V15.5279H135.886C136.052 15.1649 136.325 14.8616 136.669 14.6596C137.013 14.4575 137.411 14.3664 137.809 14.3986C138.114 14.382 138.419 14.433 138.702 14.5478C138.985 14.6627 139.239 14.8386 139.447 15.0631C139.654 15.2876 139.809 15.555 139.902 15.8464C139.994 16.1378 140.02 16.4459 139.98 16.7488V20.8189H138.734V17.0557C138.734 16.0488 138.265 15.5388 137.386 15.5388C137.172 15.5213 136.957 15.5507 136.756 15.625C136.555 15.6993 136.372 15.8166 136.221 15.9688C136.07 16.1211 135.954 16.3045 135.881 16.5063C135.808 16.7081 135.78 16.9234 135.799 17.1371V20.8189H134.555L134.555 12.0539Z" fill="white"/>
<path d="M147.234 19.1168C147.065 19.693 146.699 20.1913 146.199 20.5247C145.7 20.8581 145.099 21.0054 144.502 20.9406C144.087 20.9516 143.674 20.872 143.293 20.7075C142.911 20.543 142.57 20.2974 142.293 19.9878C142.016 19.6782 141.81 19.312 141.688 18.9147C141.567 18.5173 141.534 18.0983 141.59 17.6867C141.535 17.2739 141.569 16.854 141.69 16.4554C141.811 16.0569 142.017 15.689 142.292 15.3767C142.568 15.0644 142.907 14.815 143.288 14.6453C143.668 14.4756 144.08 14.3896 144.497 14.3932C146.251 14.3932 147.309 15.5916 147.309 17.5712V18.0053H142.858V18.075C142.838 18.3064 142.867 18.5392 142.943 18.7587C143.019 18.9781 143.14 19.1793 143.298 19.3494C143.456 19.5194 143.648 19.6545 143.861 19.7461C144.074 19.8376 144.304 19.8836 144.537 19.881C144.834 19.9167 145.136 19.8632 145.403 19.7271C145.67 19.591 145.89 19.3785 146.036 19.1168L147.234 19.1168ZM142.858 17.0852H146.042C146.058 16.8736 146.029 16.6611 145.957 16.4613C145.886 16.2615 145.774 16.0788 145.628 15.925C145.482 15.7712 145.305 15.6497 145.109 15.5682C144.913 15.4868 144.702 15.4472 144.49 15.4521C144.275 15.4494 144.061 15.4898 143.862 15.5709C143.663 15.652 143.482 15.7722 143.33 15.9244C143.177 16.0766 143.057 16.2577 142.976 16.4571C142.895 16.6564 142.855 16.87 142.858 17.0852H142.858Z" fill="white"/>
</g>
<defs>
<clipPath id="clip0">
<rect width="167.53" height="56" fill="white" transform="translate(0.568359 0.242065)"/>
</clipPath>
</defs>
</svg>
